<svg id="Layer_1" data-name="Layer 1" xmlns="http://www.w3.org/2000/svg" viewBox="0 0 200 200"><path d="M45.38,170.41l-.6-.23C44.79,170.29,44.94,170.38,45.38,170.41Z" style="fill:#28b056"/><path d="M83.86,119.53s0,.1,0,.14S83.88,119.54,83.86,119.53Z" style="fill:#28b056"/><polygon points="27.43 162.54 27.43 162.55 27.49 162.5 27.43 162.54" style="fill:#28b056"/><path d="M52.62,163.21c-8-.29-10.1-1.37-18.38-.93-1.93,0-3.92,0-5.9.06h-.4l-.05,0-.13.06a2,2,0,0,1-.32.11h0c-.43.3-.43,0-.41-.21v-.26s0,0,0-.06v-.24a7.61,7.61,0,0,0-.29-1.79l.48-.84a3.79,3.79,0,0,1-.15-2.37l.14,0a22.39,22.39,0,0,1-.33-2.92l.14,0-.06-1.35.2.23a19.88,19.88,0,0,1-.24-5.72l-.58.15c.65-3.78-.55-5.16.22-8.57l.14,0c-1.53-4.31,1-6.81-.41-11.26.18.56.3-.23.44-.19-.17-2-.26-4.23-1.4-4.26,0-1.49.36-1.21.8-1.41-.5,0-.71-1.29-.74-2.45l.2.54-.17-3.26-.24.08-.24.17-.47.33a2.58,2.58,0,0,1,.13-.52.64.64,0,0,1,.16-.19.88.88,0,0,1,.36-.11c.23,0,.39,0,.28-.47l-.79-.22c.09-.8.47-1.2.9-1.27a14.18,14.18,0,0,1,1.78.87,4.13,4.13,0,0,0,.5,0l1.63-.14c1.24-.13,2.49-.28,3.74-.45l7.5-1.07a71.69,71.69,0,0,1,14.5-1l.45.55c.25.84,2.41-1.47,2.82-.71l1-.48c.31.12,1,.23.44.47a3,3,0,0,0,1.68-.51l1.1.44c3.91.09,7.11-1.22,11.21-1.35.53.07,1.1.11,1.72.13.23,0,.34.09.51.11a3.15,3.15,0,0,0,1-.07c0,.41.18.85.32,1.47.11,2,.21,3.8.29,5.32.91,7.54-2.93,16.07-1.84,23.8a1,1,0,0,0,.21.9l-.47,7s-2,34,6.37,8.49l.17.19c.65-3.82.86-6.23,0-8.92,1.18-.36.28-3.14.7-4l.09.09c-.78-2.39,1-4.79.29-7.08a.68.68,0,0,1,.39.67c-.06-1.65-.21-3.91.47-4,0-3.93.59-9.39-.35-12l.17.18c-.65-1.47,0-1.86-.3-3.48.09-.08.14-.19.18-.17-.64-1.6.11-4.57-.13-5.84l.45-.06.11-4.38-.18,1.8c-.61-.21-.37-1-.06-2.36a11.24,11.24,0,0,0,.37-4.61c0-.22,0-.44,0-.64a22.94,22.94,0,0,0-5.16,1.7c-1.58.66-2.7,1.2-3.86,1-1.1.66.91-1-.71-.44-.11-.63.69-.46.24-.93-1.5.43-2.56-.44-4.41.15l-.12-.49c-2.39,1.12-4.7-.26-6.27.75-2.5.62-1.82-1.33-4.39-.14l-1.08-.58c-1.14,0-.74.89-2,.67,0-.43-1.62-.2-.92-.66-2.89-.42-5.68,1.42-9.52.62-.74.89-2.66.56-3.22,1.23-.13-.35-3.77.26-1.72-.69.17-.08.49-.1.48,0l.21-.51c-2.21-.74-3.83.83-5.95.87.64.11,1.47,0,.94.38l-2,.1.38-.45H32.44l.44.47c-1.45-.14-2-1-3.58-.1-.69.46,1.41.57-.08.86l-1.57-.15-.43,0H24.88c-2.22,0-4.69,0-7,.15l0,.34c.58.11.56,1.26.67,2.5l-.49-.19c.34,2.54.07,2.78-.22,3.14s-.6.74-.33,3.25l-.35-.45c.18.23.35.46.52.66l.52.34c1,2.33-1,1.26.32,3.84-.09-1,1.1-.48.88.78l-.48-.32c.1.7.3.93.2,1.39-.26-.41-.7-.22-.61.81l-.61-.69.89,1.94c-.52,1.49.13,3.86-.55,4.47,0,0-.33,3.21.41,3.95-.46-.64-.63,1.13-1.18.62.53.83,1,3.29.4,4.28l-.07-.19c-.56,3.64.78,6.23.09,9.49.58-.14.27,1.58,1,1.15.73,3.38-1.5,6.17.79,7.39.12,1.54-.54,1.82-.66,2.61L18.9,158c.1,1.44.15,2.37.17,3.2,0,.62,0,2.12,0,3.81a3.84,3.84,0,0,0,.69,1.66,4.1,4.1,0,0,1,.34,2.54c-.35-.43-.36.19-.35,1h.61c-.74.06-1.16.22.08.5a6.11,6.11,0,0,1,1.06-.28s0,.06,0,.11c2-.15,1.69-.28.91-.34.08-.06.07-.15-.1-.26a11.29,11.29,0,0,0,3.13.27c1.1,0,2,.05,2.08.41H28l.33,0,.64,0,1.23-.13c.79-.1,1.54-.22,2.27-.34,1.47-.25,2.86-.5,4.35-.64.34.37-.36.7-1.23.84l2.12-.13c0,.53-1.22.31-1.87.41,2.53.87,5.21-.86,8.17-.07l.61-.42.18.07c0-.22.66-.53,1.1-.6.41.47,0,1.08,1.43,1,1.16.45,3.3-.23,4.82-.48-.82-.08-.56-.34-.21-.5.74,0,1.16.45,1.72.25l.08.63c-.29-.6,1.91-.64,2.18-.9.42.47-1.14.4-1.32.75L59,170.3c1.57-.48-.28-.6.47-1.15,1.38-.13,2.73-.57,4.32-.19l-.5-.56a11.52,11.52,0,0,1,5.91.2c19.38-4.55,4.08-6.22,4.08-6.22C65.64,161.14,61.7,162.77,52.62,163.21Z" style="fill:#28b056"/><line x1="55.5" y1="165.5" x2="49.5" y2="111.43" style="fill:#fff"/><path d="M51.75,158.11,52,158A.22.22,0,0,0,51.75,158.11Z" style="fill:#28b056"/><path d="M47.77,123l-.06,0A.07.07,0,0,0,47.77,123Z" style="fill:#28b056"/><path d="M58.94,151.85h0l.07,0Z" style="fill:#28b056"/><path d="M59.1,159c.07-1.89,1.1-2.5.45-4.38a12.38,12.38,0,0,0-.61-2.76c-.88-.34-.14-1.18-.9-1.61l.45-.25c-.26-.14-.44-.33-.2-.53h.14c-.39-.22-.21-.53-.41-.64h.15l-.1-.31.2,0a1.24,1.24,0,0,1-.38-1.31l-.57.1c.55-1-.69-1.14,0-2h.14c-1.63-.84.86-1.7-.7-2.58.2.11.29-.09.44-.09-.22-.46-.36-1-1.5-.84,0-.35.33-.32.76-.41a.67.67,0,0,1-.8-.49l.21.1-.26-.76-.92.26c.23-.44,1.13-.23.86-.6l-.77.09c.09-.59,1.23-1.05,1.74-1.67.07-2.32-2.18-4.57-1-6.85l.58-.16c.84-.13-1.33-.45-.55-.61l-.42-.21c.15-.09.29-.25.5-.15,0-.23-.14-.22-.41-.36l.5-.3c.31-1-.8-1.61-.69-2.58,1-1.27-.28-3.31-1-4.49-1.47-1.6,1.7-4,.05-5.62.11-.08-.18-.2-.27-.18l-.06-1.65s-.56-8-6.95-1.16l-.19,0c-.35,1-.39,1.52.61,2-1.13.23,0,.75-.38,1h-.09c.94.45-.61,1.21.23,1.65-.09,0-.4,0-.44-.11.19.37.5.86-.16,1,.28.89.11,2.2,1.24,2.67l-.19,0c.75.25.15.42.56.75a.87.87,0,0,1-.16.06c.75.29.23,1,.56,1.31l-.44.07.18.72.07-.29c1.23,0-.7.64.14,1.08-.1.5,2.64.71,2.1,1.29.6.18-1-.11-.47.2-.63.08-.41-.12-.91,0,.34.32-.58.65-.11,1.05l-.49.07c1,.48-.53,1.16.38,1.45.47.54-1.43.56-.39,1.07l-.64.31c-.08.28.84.1.55.43-.43,0-.3.41-.72.28-.58.74,1.09,1.24.07,2.24.84.1.4.59,1,.66-.35.07,0,.89-.79.48-.07,0-.06-.11.08-.12h-.5c-.86.6.61.85.52,1.36.15-.17.08-.36.43-.27v.47l-.42-.05-.17.71.5-.15c-.22.36-1.07.57-.31.87.42.13.65-.39.84-.06A6,6,0,0,0,48,140c.57-.11.56,0,.7.19l-.49.07c.75.53-1.07.34-.45.88h-.36l1.06,0c1,.43-1,.41.41.86-.11-.23,1.08-.23.89.08l-.48,0c.12.15.32.19.24.3-.27-.06-.71,0-.6.26l-.61-.09.93.35c-.48.4.23.88-.43,1.1,0,0-.25.79.51.88-.48-.1-.6.33-1.16.27.54.14,1,.66.5,1l-.06,0c-.47.91.93,1.36.33,2.2.57-.1.3.33,1,.15.81.71-1.34,1.6,1,1.63.17.35-.48.49-.58.69l-.13-.08a2.92,2.92,0,0,1,.31,1.35c.25.22,1.31.15,1.1.62-.43-.1-.34.08-.32.24-.07-.1-.23-.11-.49.14a.66.66,0,0,1,.29.09l-.1,0c.18.26.3.2.34.06a.63.63,0,0,0,.26-.07c-.51.35.13.8-.59.91.26.82,1.07,1.34,1.43,2a.87.87,0,0,1-.88-.19l.19.48c-.53,0-.33-.25-.46-.39-.79.68,1,1.11.28,1.89l.44.1L52,158a.92.92,0,0,1,.62.18c-.45.15-1.07.12-1,.46-.42.31.31.74.6,1.06.05-.2.32-.16.49-.1s-.42.32-.2.43l-.63.08c.58-.13.69.38.95.41-.45.15-.43-.22-.78-.22.13.68.06.34.2,1,.51.31.58-.14,1.15,0,.16.31.63.57.3,1l.54-.18c.5.55.47.92-.05,1.39,5,4,6.3.27,6.3.27C61.49,161.81,59.77,161.07,59.1,159Z" style="fill:#28b056"/><line x1="24.98" y1="140.49" x2="79.63" y2="136.43" style="fill:#fff"/><path d="M32.56,137l.16.22A.24.24,0,0,0,32.56,137Z" style="fill:#28b056"/><path d="M68.07,134.28l0-.05A.09.09,0,0,0,68.07,134.28Z" style="fill:#28b056"/><path d="M38.59,144.42h0s0,0,0,.06Z" style="fill:#28b056"/><path d="M31.39,144.32c1.9.14,2.48,1.18,4.39.6a12.74,12.74,0,0,0,2.81-.5c.36-.88,1.19-.1,1.64-.85l.24.46c.15-.25.35-.43.54-.18V144c.24-.39.55-.19.67-.38v.14l.31-.09,0,.21a1.25,1.25,0,0,1,1.33-.34L43.2,143c.94.58,1.17-.65,2,.06v.14c.9-1.6,1.68.92,2.62-.6-.12.19.08.29.08.43.47-.2,1-.32.9-1.46.35,0,.31.33.39.77a.66.66,0,0,1,.52-.78l-.11.2.77-.23-.22-.93c.43.24.19,1.14.57.89l-.06-.78c.58.11,1,1.26,1.61,1.8,2.34.16,4.68-2,6.93-.8l.14.58c.11.85.5-1.31.64-.53l.22-.41c.09.15.25.3.14.5.23,0,.23-.12.37-.39l.29.51c.95.35,1.65-.74,2.62-.6,1.24,1,3.34-.16,4.55-.83,1.67-1.41,4,1.84,5.66.25.07.11.2-.17.2-.27h1.66s8-.27,1.42-6.9l0-.19c-.93-.39-1.51-.44-2.06.54-.19-1.14-.75-.06-1-.42v-.09c-.49.92-1.19-.65-1.66.18,0-.1,0-.41.12-.44-.38.17-.89.47-1-.2-.92.25-2.23,0-2.74,1.14l0-.18c-.28.74-.42.13-.77.53a.88.88,0,0,1-.06-.17c-.32.74-1.07.19-1.34.52l0-.44-.73.15.28.08c0,1.23-.61-.73-1.08.11-.51-.12-.82,2.61-1.38,2.05-.2.59.15-.95-.19-.48-.06-.64.15-.41,0-.91-.34.33-.64-.61-1.05-.15l-.06-.49c-.51.95-1.14-.57-1.46.32-.57.45-.52-1.44-1.07-.42l-.29-.66c-.28-.09-.13.84-.45.54,0-.43-.4-.31-.26-.73-.72-.61-1.29,1-2.25,0-.13.84-.61.38-.71,1-.05-.36-.9,0-.46-.81,0-.07.12-.06.12.08l0-.49c-.57-.88-.88.57-1.39.47.16.15.36.09.25.44l-.47,0,.07-.41-.71-.19.13.5c-.35-.24-.54-1.09-.86-.34-.15.41.37.66,0,.84a5.83,5.83,0,0,0-1.78-.89c.1.57-.06.56-.21.69l0-.5c-.56.74-.31-1.07-.87-.48l0-.35-.08,1.05c-.47,1-.37-1-.88.38.23-.1.19,1.09-.12.89l0-.48c-.15.11-.19.32-.31.22.08-.26,0-.7-.24-.6l.12-.61-.39.92c-.39-.49-.9.2-1.09-.47,0,0-.78-.27-.9.48.12-.47-.31-.62-.23-1.17-.16.54-.71,1-1,.47l0-.06c-.9-.51-1.41.88-2.23.25.08.57-.35.29-.19,1-.75.79-1.57-1.39-1.68.91-.36.15-.47-.51-.67-.61l.08-.13a2.86,2.86,0,0,1-1.37.26c-.23.24-.19,1.3-.66,1.08.11-.43-.06-.34-.23-.33.1-.07.12-.23-.12-.49a.75.75,0,0,1-.1.28.25.25,0,0,1,0-.1c-.27.17-.21.3-.08.35a.72.72,0,0,0,.07.26c-.33-.53-.81.09-.9-.63-.83.23-1.38,1-2.06,1.36a.84.84,0,0,1,.22-.87l-.49.17c0-.53.27-.33.41-.44-.66-.83-1.16.95-1.91.21l-.12.43,0-.07a.9.9,0,0,1-.22.62c-.13-.46-.07-1.07-.41-1-.31-.43-.76.29-1.1.56.2.07.16.33.09.5s-.31-.43-.43-.22l-.06-.63c.11.59-.4.68-.45.94-.13-.46.24-.42.26-.78l-1,.17c-.34.5.11.59,0,1.15-.32.15-.6.61-1,.26l.16.55c-.58.48-.95.44-1.41-.1-4.22,4.89-.5,6.28-.5,6.28C28.48,146.6,29.28,144.91,31.39,144.32Z" style="fill:#28b056"/><path d="M85.41,50.62l-.23.6C85.29,51.21,85.38,51.06,85.41,50.62Z" style="fill:#28b056"/><path d="M34.53,12.14l.14,0C34.57,12.11,34.54,12.12,34.53,12.14Z" style="fill:#28b056"/><polygon points="77.54 68.57 77.55 68.57 77.5 68.51 77.54 68.57" style="fill:#28b056"/><path d="M78.21,43.38c-.29,8-1.37,10.1-.93,18.38,0,1.93,0,3.92.06,5.9V68s0,0,0,0l0,0,.06.13a2,2,0,0,1,.11.32h0c.3.43,0,.43-.21.41h-.56a7.61,7.61,0,0,0-1.79.29l-.84-.48a3.79,3.79,0,0,1-2.37.15l0-.14a22.39,22.39,0,0,1-2.92.33l0-.14-1.35.06.23-.2a19.88,19.88,0,0,1-5.72.24l.15.58c-3.78-.65-5.16.55-8.57-.22l0-.14c-4.31,1.53-6.81-1-11.26.41.56-.18-.23-.3-.19-.44-2,.17-4.23.26-4.26,1.4-1.49,0-1.21-.36-1.41-.8,0,.5-1.29.71-2.45.74l.54-.2-3.26.17c0,.08,0,.16.08.24l.17.24.33.47a2.58,2.58,0,0,1-.52-.13.64.64,0,0,1-.19-.16.88.88,0,0,1-.11-.36c0-.23,0-.39-.47-.28l-.22.79c-.8-.09-1.2-.47-1.27-.9a14.18,14.18,0,0,1,.87-1.78,4.13,4.13,0,0,0,0-.5c-.05-.54-.09-1.08-.14-1.63-.13-1.24-.28-2.49-.45-3.74l-1.07-7.5a71.69,71.69,0,0,1-1-14.5l.55-.45c.84-.25-1.47-2.41-.71-2.82l-.48-1c.12-.31.23-1,.47-.44a3,3,0,0,0-.51-1.68l.44-1.1c.09-3.91-1.22-7.11-1.35-11.21.07-.53.11-1.1.13-1.72.05-.23.09-.34.11-.51a3.15,3.15,0,0,0-.07-1c.41-.05.85-.18,1.47-.32l5.32-.29c7.54-.91,16.07,2.93,23.8,1.84a1,1,0,0,0,.9-.21l7,.47s34,2,8.49-6.37l.19-.17C69.4,13.18,67,13,64.3,13.78c-.36-1.18-3.14-.28-4-.7l.09-.09c-2.39.78-4.79-1-7.08-.29a.68.68,0,0,1,.67-.39c-1.65.06-3.91.21-4-.47-3.93,0-9.39-.59-12,.35l.18-.17c-1.47.65-1.86,0-3.48.3-.08-.09-.19-.14-.17-.18-1.6.64-4.57-.11-5.84.13l-.06-.45-4.38-.11,1.8.18c-.21.61-1,.37-2.36.06a11.24,11.24,0,0,0-4.61-.37l-.64,0a22.94,22.94,0,0,0,1.7,5.16c.66,1.58,1.2,2.7,1,3.86.66,1.1-1-.91-.44.71-.63.11-.46-.69-.93-.24.43,1.5-.44,2.56.15,4.41l-.49.12c1.12,2.39-.26,4.7.75,6.27.62,2.5-1.33,1.82-.14,4.39l-.58,1.08c0,1.14.89.74.67,2-.43,0-.2,1.62-.66.92-.42,2.89,1.42,5.68.62,9.52.89.74.56,2.66,1.23,3.22-.35.13.26,3.77-.69,1.72-.08-.17-.1-.49.05-.48L20.19,54c-.74,2.21.83,3.83.87,5.95.11-.64,0-1.47.38-.94l.1,2-.45-.38v2.94l.47-.44c-.14,1.45-1,2-.1,3.58.46.69.57-1.41.86.08,0,.47-.1,1-.15,1.57l0,.43v.73c0,.53,0,1.07,0,1.61,0,2.22,0,4.69.15,7l.34,0c.11-.58,1.26-.56,2.5-.67l-.19.49c2.54-.34,2.78-.07,3.14.22s.74.6,3.25.33l-.45.35c.23-.18.46-.35.66-.52l.34-.52c2.33-1,1.26,1,3.84-.32-1,.09-.48-1.1.78-.88l-.32.48c.7-.1.93-.3,1.39-.2-.41.26-.22.7.81.61l-.69.61,1.94-.89c1.49.52,3.86-.13,4.47.55,0,0,3.21.33,4-.41-.64.46,1.13.63.62,1.18.83-.53,3.29-1,4.28-.4l-.19.07c3.64.56,6.23-.78,9.49-.09-.14-.58,1.58-.27,1.15-1,3.38-.73,6.17,1.5,7.39-.79,1.54-.12,1.82.54,2.61.66L73,77.1c1.44-.1,2.37-.15,3.2-.17.62,0,2.12,0,3.81,0a3.84,3.84,0,0,0,1.66-.69,4.1,4.1,0,0,1,2.54-.34c-.43.35.19.36,1,.35v-.61c.06.74.22,1.16.5-.08a6.11,6.11,0,0,1-.28-1.06s.06,0,.11,0c-.15-2-.28-1.69-.34-.91-.06-.08-.15-.07-.26.1a11.29,11.29,0,0,0,.27-3.13c0-1.1,0-2,.41-2.08V68l0-.33,0-.64-.13-1.23c-.1-.79-.22-1.54-.34-2.27-.25-1.47-.5-2.86-.64-4.35.37-.34.7.36.84,1.23l-.13-2.12c.53,0,.31,1.22.41,1.87.87-2.53-.86-5.21-.07-8.17l-.42-.61.07-.18c-.22,0-.53-.66-.6-1.1.47-.41,1.08,0,1-1.43.45-1.16-.23-3.3-.48-4.82-.08.82-.34.56-.5.21,0-.74.45-1.16.25-1.72l.63-.08c-.6.29-.64-1.91-.9-2.18.47-.42.4,1.14.75,1.32-.06-2.94,0-1.47-.08-4.41-.48-1.57-.6.28-1.15-.47-.13-1.38-.57-2.73-.19-4.32l-.56.5a11.52,11.52,0,0,1,.2-5.91c-4.55-19.38-6.22-4.08-6.22-4.08C76.14,30.36,77.77,34.3,78.21,43.38Z" style="fill:#28b056"/><line x1="80.5" y1="40.5" x2="26.43" y2="46.5" style="fill:#fff"/><path d="M73.11,44.25,73,44A.22.22,0,0,0,73.11,44.25Z" style="fill:#28b056"/><path d="M38,48.23s0,0,0,.06A.07.07,0,0,0,38,48.23Z" style="fill:#28b056"/><path d="M66.85,37.06h0l0-.07Z" style="fill:#28b056"/><path d="M74,36.9c-1.89-.07-2.5-1.1-4.38-.45a12.38,12.38,0,0,0-2.76.61c-.34.88-1.18.14-1.61.9L65,37.51c-.14.26-.33.44-.53.2v-.14c-.22.39-.53.21-.64.41v-.15l-.31.1,0-.2a1.24,1.24,0,0,1-1.31.38l.1.57c-.95-.55-1.14.69-2,0v-.14c-.84,1.63-1.7-.86-2.58.7.11-.2-.09-.29-.09-.44-.46.22-1,.36-.84,1.5-.35,0-.32-.33-.41-.76a.67.67,0,0,1-.49.8l.1-.21-.76.26.26.92c-.44-.23-.23-1.13-.6-.86l.09.77c-.59-.09-1.05-1.23-1.67-1.74-2.32-.07-4.57,2.18-6.85,1L46.31,40c-.13-.84-.45,1.33-.61.55l-.21.42c-.09-.15-.25-.29-.15-.5-.23,0-.22.14-.36.41l-.3-.5c-1-.31-1.61.8-2.58.69-1.27-1-3.31.28-4.49,1-1.6,1.47-4-1.7-5.62-.05-.08-.11-.2.18-.18.27l-1.65.06s-8,.56-1.16,6.95l0,.19c.95.35,1.52.39,2-.61.23,1.13.75,0,1,.38v.09c.45-.94,1.21.61,1.65-.23,0,.09,0,.4-.11.44.37-.19.86-.5,1,.16.89-.28,2.2-.11,2.67-1.24l0,.19c.25-.75.42-.15.75-.56a.87.87,0,0,1,.06.16c.29-.75,1.05-.23,1.31-.56l.07.44.72-.18-.29-.07c0-1.23.64.7,1.08-.14.5.1.71-2.64,1.29-2.1.18-.6-.11,1,.2.47.08.63-.12.41,0,.91.32-.34.66.58,1,.11l.07.49c.48-1,1.16.53,1.45-.38.54-.47.56,1.43,1.07.39l.31.64c.28.08.1-.84.43-.55,0,.43.41.3.28.72.74.58,1.24-1.09,2.24-.07.1-.84.59-.4.66-1,.07.35.89,0,.48.79,0,.07-.11.06-.12-.08v.5c.6.86.85-.61,1.36-.52-.17-.15-.36-.08-.27-.43h.47l0,.42.71.17-.15-.5c.36.22.57,1.07.87.31.13-.42-.39-.65-.06-.84A6,6,0,0,0,55,48c-.11-.57,0-.56.19-.7l.07.49c.53-.75.34,1.07.88.45v.36l0-1.06c.43-1,.41,1,.86-.41-.23.11-.23-1.08.08-.89l0,.48c.15-.12.19-.32.3-.24-.06.27,0,.71.26.6l-.09.61.35-.93c.4.48.88-.23,1.1.43,0,0,.79.25.88-.51-.1.48.33.6.27,1.16.14-.54.66-1,1-.5l0,.06c.91.47,1.36-.93,2.2-.33-.1-.57.33-.3.15-1,.71-.81,1.6,1.34,1.63-1,.35-.17.49.48.69.58l-.08.13A2.92,2.92,0,0,1,67,45.46c.22-.25.15-1.31.62-1.1-.1.43.08.34.24.32-.1.07-.11.23.14.49a.66.66,0,0,1,.09-.29.3.3,0,0,1,0,.1c.26-.18.2-.3.06-.34a.63.63,0,0,0-.07-.26c.35.51.8-.13.91.59.82-.26,1.34-1.07,2-1.43a.87.87,0,0,1-.19.88l.48-.19c0,.53-.25.33-.39.46.68.79,1.11-1,1.89-.28l.1-.44L73,44a.92.92,0,0,1,.18-.62c.15.45.12,1.07.46,1,.31.42.74-.31,1.06-.6-.2-.05-.16-.32-.1-.49s.32.42.43.2l.08.63c-.13-.58.38-.69.41-.95.15.45-.22.43-.22.78l1-.2c.31-.51-.14-.58,0-1.15.31-.16.57-.63,1-.3l-.18-.54c.55-.5.92-.47,1.39.05,4-5,.27-6.3.27-6.3C76.81,34.51,76.07,36.23,74,36.9Z" style="fill:#28b056"/><line x1="55.49" y1="71.02" x2="51.43" y2="16.37" style="fill:#fff"/><path d="M52,63.44l.22-.16A.24.24,0,0,0,52,63.44Z" style="fill:#28b056"/><path d="M49.28,27.93l-.05,0Z" style="fill:#28b056"/><path d="M59.42,57.41h0l.06,0Z" style="fill:#28b056"/><path d="M59.32,64.61c.14-1.9,1.18-2.48.6-4.39a12.74,12.74,0,0,0-.5-2.81c-.88-.36-.1-1.19-.85-1.64l.46-.24c-.25-.15-.43-.35-.18-.54H59c-.39-.24-.19-.55-.38-.67h.14L58.66,54l.21,0a1.25,1.25,0,0,1-.34-1.33L58,52.8c.58-.94-.65-1.17.06-2h.14c-1.6-.9.92-1.68-.6-2.62.19.12.29-.08.43-.08-.2-.47-.32-1-1.46-.9,0-.35.33-.31.77-.39a.66.66,0,0,1-.78-.52l.2.11-.23-.77-.93.22c.24-.43,1.14-.19.89-.57l-.78.06c.11-.58,1.26-1,1.8-1.61.16-2.34-2-4.68-.8-6.93l.58-.14c.85-.11-1.31-.5-.53-.64l-.41-.22c.15-.09.3-.25.5-.14,0-.23-.12-.23-.39-.37l.51-.29c.35-.95-.74-1.65-.6-2.62,1-1.24-.16-3.34-.83-4.55-1.41-1.67,1.84-4,.25-5.66.11-.07-.17-.2-.27-.2V20.28s-.27-8-6.9-1.42l-.19,0c-.39.93-.44,1.51.54,2.06-1.14.19-.06.75-.42,1h-.09c.92.49-.65,1.19.18,1.66-.1,0-.41,0-.44-.12.17.38.47.89-.2,1,.25.92,0,2.23,1.14,2.74l-.18,0c.74.28.13.42.53.77a.88.88,0,0,1-.17.06c.74.32.19,1.07.52,1.34l-.44.05.15.73.08-.28c1.23,0-.73.61.11,1.08-.12.51,2.61.82,2,1.38.59.2-1-.15-.48.19-.64.06-.41-.15-.91,0,.33.34-.61.64-.15,1.05l-.49.06c1,.51-.57,1.14.32,1.46.46.57-1.44.52-.42,1.07l-.66.29c-.09.28.84.13.54.45-.43,0-.31.4-.73.26-.61.72,1,1.29,0,2.25.84.13.38.61,1,.71-.36.05,0,.9-.81.46-.07,0-.06-.12.08-.12l-.49,0c-.88.57.57.88.47,1.39.15-.16.09-.36.44-.25l0,.47L49,41.86l-.19.71.5-.13c-.24.35-1.09.54-.34.86.41.15.66-.37.84,0a5.83,5.83,0,0,0-.89,1.78c.57-.1.56.06.69.21l-.5,0c.74.56-1.07.31-.48.87l-.35,0,1.05.08c1,.47-1,.37.38.88-.1-.23,1.09-.19.89.12l-.48,0c.11.15.32.19.22.31-.26-.08-.7,0-.6.24l-.61-.12.92.39c-.49.39.2.9-.47,1.09,0,0-.27.78.48.9-.47-.12-.62.31-1.17.23.54.16,1,.71.47,1l-.06,0c-.51.9.88,1.41.25,2.23.57-.08.29.35,1,.19.79.75-1.39,1.57.91,1.68.15.36-.51.47-.61.67l-.13-.08A2.86,2.86,0,0,1,51,57.25c.24.23,1.3.19,1.08.66-.43-.11-.34.06-.33.23-.07-.1-.23-.12-.49.12a.75.75,0,0,1,.28.1l-.1,0c.17.27.3.21.35.08a.72.72,0,0,0,.26-.07c-.53.33.09.81-.63.9.23.83,1,1.38,1.36,2.06a.84.84,0,0,1-.87-.22l.17.49c-.53,0-.33-.27-.44-.41-.83.66,1,1.16.21,1.91l.43.12-.07,0a.9.9,0,0,1,.62.22c-.46.13-1.07.07-1,.41-.43.31.29.76.56,1.1.07-.2.33-.16.5-.09s-.43.31-.22.43l-.63.06c.59-.11.68.4.94.45-.46.13-.42-.24-.78-.26.11.69.06.35.17,1,.5.34.59-.11,1.15,0,.15.32.61.6.26,1l.55-.16c.48.58.44,1-.1,1.41,4.89,4.22,6.28.5,6.28.5C61.6,67.52,59.91,66.72,59.32,64.61Z" style="fill:#28b056"/><path d="M180.72,49.33l-.32.59C180.51,49.93,180.62,49.78,180.72,49.33Z" style="fill:#28b056"/><path d="M131.94,11.5l.15-.05A.37.37,0,0,0,131.94,11.5Z" style="fill:#28b056"/><path d="M170.2,68.53h0l0-.07Z" style="fill:#28b056"/><path d="M174.6,40.83c-1.41,8.27-2.78,10.33-3.51,19-.33,2-.57,4.17-.79,6.29l-.16,1.59,0,.39v0l0,.07a1.45,1.45,0,0,1,.07.34,1.28,1.28,0,0,1,.14.21c.11.28-.18.25-.39.24a10.44,10.44,0,0,0-2.55.31l-.89-.48A4.17,4.17,0,0,1,164,69l0-.14a24.73,24.73,0,0,1-3.07.33l.05-.14-1.42.06.24-.2a21.85,21.85,0,0,1-6,.24l.16.58c-4-.65-5.42.55-9-.22l.05-.14c-4.52,1.53-7.15-1-11.81.41.59-.18-.25-.3-.2-.44-2.14.17-4.44.26-4.47,1.4-1.57,0-1.27-.36-1.48-.8,0,.5-1.35.71-2.57.74l.56-.2-1.67.09-.82.08a3.85,3.85,0,0,0,.11,1c-.57-.14-.5-.43-.46-.65s.08-.39-.4-.28l-.48.79a1.7,1.7,0,0,1-.76-.24,7.7,7.7,0,0,1,1.43-3c-.53-10.27-3.46-21.19-2.9-30.87l.55-.47c.84-.26-1.49-2.54-.73-3l-.48-1.08c.12-.33.23-1,.47-.46a3.4,3.4,0,0,0-.52-1.77l.44-1.15a29.53,29.53,0,0,0-.62-5.8c-.17-1-.35-1.9-.49-2.89l-.1-.65,0-.24a2.18,2.18,0,0,1,0-.51,1.56,1.56,0,0,0,.35-.69,3.23,3.23,0,0,0,1.06.05l.26,0,.14,0,.56,0,2.28-.14c3-.2,5.94-.5,8.2-.74,7.86-1.28,17,2.13,25,.67a1.16,1.16,0,0,0,.94-.25l7.36.12s35.7.33,8.58-6.78l.18-.18c-4-.46-6.57-.56-9.35.38-.43-1.15-3.31-.12-4.25-.49l.09-.09c-2.46.88-5.06-.74-7.43.05a.71.71,0,0,1,.68-.42c-1.72.14-4.08.4-4.21-.27-4.13.17-9.88-.14-12.52.93l.18-.18c-1.51.72-2,.11-3.64.47-.09-.08-.21-.13-.19-.17-1.64.72-4.78.12-6.11.42l-.09-.45-3.26.11,1.22.09c-.21.62-.83.42-1.69.18a9.06,9.06,0,0,0-1.46-.32,6.17,6.17,0,0,0-2,.17,7.64,7.64,0,0,0-3.56.77,14.66,14.66,0,0,1-2.43,1.17,4,4,0,0,1,.14,1.66c.36.83.09.4-.2,0s-.57-.72-.25.46c-.67-.31-.51-1.27-1-1a9.75,9.75,0,0,1,.09,3,13.61,13.61,0,0,0,0,1.59,7.2,7.2,0,0,0,.25,1.74l-.49.12c1.13,2.51-.24,4.93.77,6.58.64,2.63-1.32,1.91-.11,4.6l-.58,1.14c0,1.19.89.78.68,2.12-.43,0-.2,1.69-.66,1-.41,3,1.45,6,.66,10,.9.79.58,2.8,1.25,3.39-.35.13.28,4-.69,1.81-.08-.19-.1-.52,0-.51l-.51-.23c-.73,2.32.85,4,.89,6.25.11-.67,0-1.54.38-1l.1,2.06-.44-.39,0,3.08.47-.46c-.13,1.52-1,2.12-.09,3.75.47.73.56-1.48.86.09-.09,1-.2,2.29-.28,3.63l0,.5v.69l0,1.85c0,1.24.08,2.5.14,3.71.51-.81.59.42.8,1.54l-.45.59c.08.33.15.62.19.87,3.7-.32.35,1.17,5.45.66l-.59.35c.6-.35,1.16-.7,1.67-1a8.56,8.56,0,0,1,2.29-.28h.18l.09,0a.44.44,0,0,1,.16.06,2.49,2.49,0,0,1,.28.15c.36.22.76.38,2.12-.29-1.08.09-.51-1.1.81-.88l-.33.48c.73-.1,1-.3,1.46-.2-.44.26-.23.7.84.61l-.72.61,2-.89c1.57.52,4.06-.13,4.7.55,0,0,3.37.33,4.14-.41-.67.46,1.19.63.66,1.18.87-.53,3.45-1,4.48-.4l-.19.07c3.82.56,6.53-.78,10-.09-.16-.58,1.65-.27,1.21-1,3.54-.73,6.46,1.5,7.74-.79,1.62-.12,1.92.54,2.75.66l-.38.12c1.51-.1,2.48-.15,3.36-.17h1.46l2.42,0c1.7-.21,1.46-1.17,4-1l.08-.37c.24,1.36.34.07.49-1,0,.75.07,1.17.53-.18a5,5,0,0,1-.13-1s.06,0,.1,0c.12-2-.05-1.71-.22-.89-.06-.07-.15,0-.29.15a13.76,13.76,0,0,0,.73-3.31c.12-.8.23-1.38.61-1.42.34-3.76,0-6.53.1-9.68.42-.29.65.48.67,1.4l.16-2.23c.53.1.13,1.31.15,2,1.21-2.51-.12-5.53,1.08-8.51l-.33-.69.09-.18c-.22,0-.43-.75-.44-1.22.52-.37,1.06.18,1.24-1.35.61-1.14.24-3.46.21-5.07-.2.84-.42.53-.53.14.09-.76.61-1.14.49-1.75H182c-.63.22-.37-2.08-.59-2.39.53-.38.24,1.23.56,1.47l.54-4.6c-.25-1.69-.63.22-1.07-.64.07-1.45-.17-2.92.42-4.52l-.62.45a12.58,12.58,0,0,1,1-6.12c-1.78-20.77-5.59-5.08-5.59-5.08C174.39,27,175.44,31.33,174.6,40.83Z" style="fill:#28b056"/><path d="M170.36,49.41l-.15-.23A.21.21,0,0,0,170.36,49.41Z" style="fill:#28b056"/><path d="M131,49.5l0,0A.09.09,0,0,0,131,49.5Z" style="fill:#28b056"/><path d="M164.32,41.57h0l0-.06Z" style="fill:#28b056"/><path d="M172.25,42.21c-2.08-.29-2.63-1.37-4.79-.93a14.89,14.89,0,0,0-3.13.29c-.48.85-1.33,0-1.89.72l-.22-.48c-.19.25-.42.41-.62.15v-.14c-.29.37-.62.15-.76.33V42l-.35.06.06-.2a1.49,1.49,0,0,1-1.49.24l0,.58c-1-.65-1.35.55-2.24-.22v-.14c-1.12,1.53-1.77-1-2.93.41.14-.18-.06-.3-.05-.44-.53.17-1.1.26-1.11,1.4-.39,0-.32-.36-.37-.8a.68.68,0,0,1-.64.74l.14-.2-.87.17.17,1c-.46-.27-.11-1.15-.56-.93v.79c-.64-.16-1-1.34-1.63-1.92-2.57-.33-5.32,1.66-7.71.29l-.11-.59c0-.86-.66,1.27-.75.47l-.27.4c-.08-.16-.25-.32-.11-.51-.26,0-.26.1-.45.36l-.27-.53c-1-.42-1.88.61-2.94.41-1.28-1.09-3.69-.09-5.08.49-2,1.28-4.23-2.13-6.23-.67-.06-.12-.23.15-.23.25l-1.83-.12s-8.87-.33-2.13,6.78l0,.18c1,.46,1.64.56,2.33-.38.11,1.15.82.12,1,.49l0,.09c.61-.88,1.26.74,1.85,0,0,.09,0,.4-.17.42.43-.14,1-.4,1,.27,1-.17,2.45.14,3.11-.93l-.05.18c.38-.72.49-.11.9-.47,0,.08.06.13.05.17.41-.72,1.19-.12,1.52-.42l0,.45.81-.11-.3-.09c.11-1.23.62.76,1.2,0,.55.16,1.12-2.54,1.69-1.94.28-.58-.24.93.17.49,0,.63-.19.4-.08.91.4-.31.65.65,1.15.22l0,.49c.64-.9,1.21.66,1.64-.21.67-.41.45,1.48,1.14.51l.27.67c.29.11.21-.83.54-.5,0,.42.41.34.22.74.74.66,1.51-.94,2.49.18.21-.82.7-.33.86-1,0,.36,1,.05.43.83,0,.07-.13.06-.12-.08l-.07.49c.56.92,1-.51,1.57-.37-.16-.16-.38-.12-.24-.46l.52.07-.11.41.76.24-.1-.51c.37.27.5,1.13.93.41.19-.4-.36-.69,0-.85a6.73,6.73,0,0,0,1.88,1c-.06-.58.12-.56.29-.67l0,.49c.68-.69.25,1.1.92.55l0,.35.17-1c.61-1,.33,1,1-.32-.26.09-.12-1.1.21-.88l-.09.48c.19-.1.25-.3.37-.2-.11.26-.06.7.21.61l-.18.61.5-.89c.39.52,1-.13,1.17.55,0,0,.84.33,1-.41-.17.46.29.63.16,1.18.22-.53.86-1,1.12-.4l-.05.07c1,.56,1.62-.78,2.47-.09,0-.58.41-.27.3-1,.88-.73,1.61,1.5,1.93-.79.4-.12.47.54.68.66l-.1.12a3.62,3.62,0,0,1,1.53-.16c.28-.22.32-1.28.82-1-.16.43,0,.35.23.35-.12.06-.15.22.09.5a.91.91,0,0,1,.14-.28s0,.06,0,.11c.31-.15.25-.28.11-.34a.58.58,0,0,0,0-.26c.32.54.9,0,.94.68.94-.16,1.61-.91,2.39-1.19a.81.81,0,0,1-.32.84l.55-.13c0,.53-.32.31-.49.41.66.87,1.36-.86,2.13-.07l.16-.42.05.07a.92.92,0,0,1,.28-.6c.11.47,0,1.08.38,1.05.3.45.86-.23,1.25-.48-.21-.08-.14-.34-.05-.5s.3.45.45.25l0,.63c-.08-.6.5-.64.57-.9.11.47-.3.4-.35.75l1.15-.08c.41-.48-.07-.6.12-1.15.37-.13.72-.57,1.13-.19L175,47.4c.68-.43,1.09-.36,1.54.2,5.06-4.55,1.07-6.22,1.07-6.22C175.65,40.14,174.62,41.77,172.25,42.21Z" style="fill:#28b056"/><line x1="147.49" y1="71.02" x2="143.43" y2="16.37" style="fill:#fff"/><path d="M144,63.44l.22-.16A.24.24,0,0,0,144,63.44Z" style="fill:#28b056"/><path d="M141.28,27.93l-.05,0Z" style="fill:#28b056"/><path d="M151.42,57.41h0l.06,0Z" style="fill:#28b056"/><path d="M151.32,64.61c.14-1.9,1.18-2.48.6-4.39a12.74,12.74,0,0,0-.5-2.81c-.88-.36-.1-1.19-.85-1.64l.46-.24c-.25-.15-.43-.35-.18-.54H151c-.39-.24-.19-.55-.38-.67h.14l-.09-.31.21,0a1.25,1.25,0,0,1-.34-1.33l-.57.08c.58-.94-.65-1.17.06-2h.14c-1.6-.9.92-1.68-.6-2.62.19.12.29-.08.43-.08-.2-.47-.32-1-1.46-.9,0-.35.33-.31.77-.39a.66.66,0,0,1-.78-.52l.2.11-.23-.77-.93.22c.24-.43,1.14-.19.89-.57l-.78.06c.11-.58,1.26-1,1.8-1.61.16-2.34-2-4.68-.8-6.93l.58-.14c.85-.11-1.31-.5-.53-.64l-.41-.22c.15-.09.3-.25.5-.14,0-.23-.12-.23-.39-.37l.51-.29c.35-.95-.74-1.65-.6-2.62,1-1.24-.16-3.34-.83-4.55-1.41-1.67,1.84-4,.25-5.66.11-.07-.17-.2-.27-.2V20.28s-.27-8-6.9-1.42l-.19,0c-.39.93-.44,1.51.54,2.06-1.14.19-.06.75-.42,1h-.09c.92.49-.65,1.19.18,1.66-.1,0-.41,0-.44-.12.17.38.47.89-.2,1,.25.92,0,2.23,1.14,2.74l-.18,0c.74.28.13.42.53.77a.88.88,0,0,1-.17.06c.74.32.19,1.07.52,1.34l-.44.05.15.73.08-.28c1.23,0-.73.61.11,1.08-.12.51,2.61.82,2.05,1.38.59.2-.95-.15-.48.19-.64.06-.41-.15-.91,0,.33.34-.61.64-.15,1.05l-.49.06c.95.51-.57,1.14.32,1.46.45.57-1.44.52-.42,1.07l-.66.29c-.09.28.84.13.54.45-.43,0-.31.4-.73.26-.61.72,1,1.29,0,2.25.84.13.38.61,1,.71-.36.05,0,.9-.81.46-.07,0-.06-.12.08-.12l-.49,0c-.88.57.57.88.47,1.39.15-.16.09-.36.44-.25l0,.47-.41-.07-.19.71.5-.13c-.24.35-1.09.54-.34.86.41.15.66-.37.84,0a5.83,5.83,0,0,0-.89,1.78c.57-.1.56.06.69.21l-.5,0c.74.56-1.07.31-.48.87l-.35,0,1.05.08c1,.47-1,.37.38.88-.1-.23,1.09-.19.89.12l-.48,0c.11.15.32.19.22.31-.26-.08-.7,0-.6.24l-.61-.12.92.39c-.49.39.2.9-.47,1.09,0,0-.27.78.48.9-.47-.12-.62.31-1.17.23.54.16,1,.71.47,1l-.06,0c-.51.9.88,1.41.25,2.23.57-.08.29.35,1,.19.79.75-1.39,1.57.91,1.68.15.36-.51.47-.61.67l-.13-.08a2.86,2.86,0,0,1,.26,1.37c.24.23,1.3.19,1.08.66-.43-.11-.34.06-.33.23-.07-.1-.23-.12-.49.12a.75.75,0,0,1,.28.1l-.1,0c.17.27.3.21.35.08a.72.72,0,0,0,.26-.07c-.53.33.09.81-.63.9.23.83,1,1.38,1.36,2.06a.84.84,0,0,1-.87-.22l.17.49c-.53,0-.33-.27-.44-.41-.83.66.95,1.16.21,1.91l.43.12-.07,0a.9.9,0,0,1,.62.22c-.46.13-1.07.07-1,.41-.43.31.29.76.56,1.1.07-.2.33-.16.5-.09s-.43.31-.22.43l-.63.06c.59-.11.68.4.94.45-.46.13-.42-.24-.78-.26.11.69.06.35.17,1,.5.34.59-.11,1.15,0,.15.32.61.6.26,1l.55-.16c.48.58.44,1-.1,1.41,4.89,4.22,6.28.5,6.28.5C153.6,67.52,151.91,66.72,151.32,64.61Z" style="fill:#28b056"/><path d="M113.7,163.86l.2-.64C113.79,163.24,113.71,163.4,113.7,163.86Z" style="fill:#216436"/><path d="M178.1,149.31c0,.05,0,.11.05.15S178.12,149.32,178.1,149.31Z" style="fill:#216436"/><path d="M120.21,139.08v0a1.38,1.38,0,0,0,.06.16Z" style="fill:#216436"/><path d="M121.31,171.08c-.17-8.4.79-10.69-.12-19.36-.14-4.15-.63-8.56-1-12.61-.95-1.87-.3-5.32-1.14-7.56l.43-.9a4.37,4.37,0,0,1-.28-2.49l.14,0a26.76,26.76,0,0,1-.49-3.06l.14,0-.14-1.43.21.24a22.32,22.32,0,0,1-.56-6l-.57.18a16,16,0,0,0-.19-4.65l-.13-1,0-.24,0-.08s0-.11,0-.16a.71.71,0,0,1,.23-.6l.15.09a2.24,2.24,0,0,1-.57-1.23,4.29,4.29,0,0,1,1.51.52,1.4,1.4,0,0,0,.27.11,2.28,2.28,0,0,0,.54,0,10.56,10.56,0,0,0,2.5-.33c-.59.15.24.31.18.44,2.16-.06,4.46,0,4.55-1.17,1.56.09,1.26.41,1.44.86,0-.5,1.39-.64,2.61-.61l-.57.16h3.51l-.64-1c1.84.36.41,1.17,2.21,1v-.78c2.56.28,4,1.53,6.48,2.23,5.16.41,10.54.25,15.83.22,2.64,0,5.26,0,7.82.13q1.92.09,3.78.3a2.85,2.85,0,0,1,.56.09l.32.1a2.12,2.12,0,0,1,.5.24,4.48,4.48,0,0,1-.29.58c-.29.41,0,.11.51-.19.33-.15.67-.1.27.22a1.29,1.29,0,0,1,.39.16c-.15.2-.32.44-.51.35,0,.3.11.25.36.48l-.13.11-.13.27-.27.56c-.41,4.09.62,7.56.41,11.87-1.09,5.16-.09,14.89.49,20.5,1.28,7.87-2.13,17-.67,25.1a1.17,1.17,0,0,0,.25.94l-.12,7.38s-.33,35.8,6.78,8.6l.19.18c.45-4,.55-6.58-.39-9.37,1.15-.44.12-3.31.49-4.26l.1.09c-.89-2.47.73-5.08-.06-7.45a.72.72,0,0,1,.43.69c-.15-1.73-.41-4.1.26-4.23-.17-4.14.14-9.91-.93-12.56l.18.19c-.72-1.51-.1-2-.47-3.65.09-.09.13-.21.17-.19-.71-1.64-.11-4.8-.42-6.13l.45-.08-.11-3.28-.09,1.23c-1.23-.43.77-2.48,0-4.86.16-2.22-2.54-4.5-1.94-6.81-.57-1.1.93,1,.49-.68.64,0,.4.77.91.35-.3-1.62.65-2.65.22-4.65l.5-.08c-.91-2.6.65-4.9-.21-6.63a2.62,2.62,0,0,1,.46-2.26,1.61,1.61,0,0,0,.31-.82,8.64,8.64,0,0,0-.27-2.43c.22-.64.45-1.33.67-2.06.11-2.15-.82-.92-.5-3.31.15-.08.24-.48.3-1-.6-.15-1.54-.25-.43-.46a45.48,45.48,0,0,0-8.23-.31,13.46,13.46,0,0,1-5.39-.52c-.89.79-2.85.2-3.52.79-.09-.36-4-.25-1.71-.92.19,0,.53,0,.5.11l.29-.47c-2.2-1-4.11.31-6.33.06.65.2,1.53.19.93.5l-2.07-.16.45-.39-3.06-.39.4.53c-1.5-.33-2-1.23-3.72-.58-.79.36,1.39.75-.21.83a72.88,72.88,0,0,0-7.56-1.38c.22.59-.47.53-1.19.61l-.06-.5c-2.76.56-1-1.14-3.68-.72l.25-.33-.76,1c-2.5.87-1.27-1.09-4.05.12,1.07,0,.45,1.12-.86.85l.36-.47c-.74.07-1,.26-1.48.13.45-.23.27-.68-.81-.65l.75-.57-2.08.79c-1.54-.59-4.06-.06-4.68-.77l-.53-.07-.57,0-1.18-.06c-1.69-.07-3.53-.06-4,.29.47-.21-.1-.39-.77-.6s-1.41-.41-1.07-.67a15.28,15.28,0,0,1-3.93.44,11.21,11.21,0,0,1,0,3.65l-.09-.4a47.88,47.88,0,0,0,.14,5c.06.8.14,1.58.22,2.34,0,.46.07.54.1.77l.1.59a14.67,14.67,0,0,1,.26,4.84c.57-.19.36,1.64,1.07,1.16.92,3.51-1.15,6.55,1.2,7.71.21,1.61-.43,1.94-.5,2.78l-.14-.37a57.36,57.36,0,0,1,.49,6.14c.28,1.11,1.35,1.23,1.2,3.25-.45-.62-.33.19-.29.95-.09-.48-.25-.62-.48.38a1.5,1.5,0,0,1,.31.54s-.06.05-.11,0c.22,1.24.34,1,.37.43.06,0,.14,0,.25-.21-.48,1.33.23,3.63-.48,3.82.37,3.77,1.26,6.43,1.72,9.55-.36.38-.73-.34-.92-1.24l.26,2.22c-.54,0-.38-1.27-.53-1.95-.72,2.7,1.17,5.43.54,8.58l.46.62-.06.19c.22,0,.56.66.66,1.12-.44.47-1.07,0-1,1.57-.39,1.24.41,3.45.75,5,0-.87.3-.6.49-.24.06.77-.39,1.24-.15,1.82l-.63.11c.58-.34.75,2,1,2.25-.44.46-.46-1.18-.82-1.35.22,3.09.11,1.54.34,4.63.56,1.62.57-.34,1.17.42.2,1.45.72,2.85.43,4.54l.53-.56a12.7,12.7,0,0,1,.14,6.22c5.65,20.11,6.45,3.95,6.45,3.95C124.12,184.65,122.26,180.6,121.31,171.08Z" style="fill:#216436"/><line x1="127.56" y1="198" x2="122.5" y2="109.43" style="fill:#fff"/><path d="M123.93,185.54l.22-.24C124,185.31,124,185.37,123.93,185.54Z" style="fill:#e74688"/><path d="M120.56,128s0,0-.06,0S120.54,128,120.56,128Z" style="fill:#e74688"/><path d="M131.25,176.25h0l.06.06Z" style="fill:#e74688"/><path d="M131.28,187.89c.11-3.06,1.15-3.93.52-7.06a30.18,30.18,0,0,0-.55-4.57c-.88-.65-.12-1.93-.88-2.72l.46-.34c-.25-.27-.44-.6-.19-.9h.14c-.39-.41-.2-.9-.4-1.1h.14l-.09-.51.21.08a3,3,0,0,1-.36-2.17l-.58.09c.57-1.48-.66-1.94,0-3.28h.14c-1.62-1.56.9-2.66-.65-4.27.19.2.29-.11.43-.1-.21-.77-.34-1.6-1.48-1.54,0-.57.33-.49.76-.59-.49,0-.73-.45-.79-.89l.21.2-.24-1.27-.93.31c.23-.69,1.14-.24.87-.87l-.78.05c.1-.94,1.25-1.56,1.78-2.49.12-3.77-2.1-7.69-.93-11.26l.58-.19c.85-.12-1.32-.89-.54-1.07l-.41-.38c.14-.13.29-.38.5-.18,0-.38-.13-.38-.41-.64l.51-.43c.33-1.51-.77-2.71-.65-4.28,1-1.93-.22-5.4-.92-7.4-1.44-2.78,1.78-6.3.15-9.14.12-.1-.17-.33-.27-.32l0-2.69s-.41-13-6.94-2.73l-.19,0c-.37,1.49-.42,2.41.58,3.37-1.14.23,0,1.21-.41,1.57l-.09,0c.94.84-.63,1.88.21,2.7-.09,0-.41,0-.44-.23.18.62.49,1.46-.18,1.55.26,1.49.07,3.59,1.19,4.49l-.19-.05c.76.5.15.7.55,1.29-.08,0-.13.09-.16.08.74.56.21,1.73.54,2.2l-.44.05.17,1.19.07-.45c1.23.08-.72.94.12,1.75-.1.82,2.64,1.49,2.09,2.36.59.37-1-.29-.48.28-.63.05-.41-.26-.91-.08.33.57-.6,1-.13,1.7l-.49.06c1,.89-.56,1.81.35,2.39.46,1-1.44.73-.41,1.69l-.65.43c-.09.44.84.27.54.76-.42,0-.3.63-.72.37-.6,1.13,1.07,2.15,0,3.65.84.26.39,1,1,1.21-.35.06,0,1.44-.8.68-.07-.07-.06-.19.08-.19l-.49-.07c-.88.87.59,1.46.49,2.27.15-.25.09-.56.44-.37l0,.76-.42-.14-.17,1.13.5-.18c-.23.56-1.09.8-.33,1.38.42.26.66-.56.85,0a11.35,11.35,0,0,0-.87,2.82c.57-.12.57.13.7.38l-.5.06c.75,1-1.07.43-.47,1.38l-.35-.07,1.06.2c1,.83-1,.54.39,1.45-.1-.39,1.09-.25.9.25l-.49-.1c.12.26.33.34.24.52-.27-.14-.71,0-.6.34l-.62-.22.93.68c-.48.6.21,1.47-.45,1.74,0,0-.26,1.24.5,1.48-.48-.22-.62.47-1.17.31.54.28,1,1.2.49,1.61l-.07-.07c-.49,1.42.91,2.33.3,3.61.57-.09.29.59,1,.38.8,1.25-1.36,2.44.94,2.77.16.58-.49.73-.59,1l-.13-.13a7.38,7.38,0,0,1,.28,2.22c.25.4,1.31.4,1.1,1.14-.44-.21-.34.09-.33.36-.07-.17-.23-.22-.49.16a.76.76,0,0,1,.29.18l-.11,0c.18.45.3.36.35.14a.4.4,0,0,0,.26-.08c-.52.5.11,1.31-.61,1.41.25,1.36,1,2.3,1.4,3.42a.71.71,0,0,1-.88-.42l.18.8c-.53,0-.33-.44-.45-.69-.81,1,1,1.94.25,3.11l.43.21-.06.08a.82.82,0,0,1,.62.38c-.46.18-1.07,0-1,.61-.43.46.29,1.24.58,1.8.06-.31.32-.23.49-.1,0,.28-.42.46-.21.67l-.63.06c.59-.14.69.7,1,.78-.46.19-.43-.41-.78-.46l.18,1.68c.51.57.59-.14,1.16.11.15.52.62,1,.28,1.64l.54-.22a1.84,1.84,0,0,1-.07,2.26c5,7.13,6.31,1.21,6.31,1.21C133.63,192.74,131.91,191.33,131.28,187.89Z" style="fill:#e74688"/><line x1="130.37" y1="109.73" x2="135.42" y2="198.3" style="fill:#fff"/><path d="M135.38,196.07c-.08.05-.11.12-.18.18C135.12,196.09,135.14,196,135.38,196.07Z" style="fill:#e74688"/><path d="M134.59,198.35a2.28,2.28,0,0,1,.61-2.1C135.45,196.74,136.73,198.05,134.59,198.35Z" style="fill:#e74688"/><path d="M138.88,195.77l-.61.75C137.66,196.13,138.69,196.15,138.88,195.77Z" style="fill:#e74688"/><polygon points="136.87 196.14 136.08 196.15 136.83 195.72 136.87 196.14" style="fill:#e74688"/><path d="M126.9,159.94a4.06,4.06,0,0,1-1.19.15Z" style="fill:#e74688"/><path d="M130.4,158.07a1.09,1.09,0,0,0,.2-.35C130.66,157.82,130.59,157.91,130.4,158.07Z" style="fill:#e74688"/><path d="M127.32,161.43l-.13-.29C127.31,161.23,127.37,161.33,127.32,161.43Z" style="fill:#e74688"/><path d="M131.4,179.68c-.56.31-1.06.6-1.41.82C129.35,180,130.65,179.88,131.4,179.68Z" style="fill:#e74688"/><path d="M141.51,149.78l-.64,0C141.16,149.65,141.43,149.6,141.51,149.78Z" style="fill:#e74688"/><path d="M141,157.07a4.8,4.8,0,0,1-.84,0,.78.78,0,0,1,.15-.1Z" style="fill:#e74688"/><path d="M128.68,162.52l.07,0-.38.26C128.24,162.68,128.35,162.59,128.68,162.52Z" style="fill:#e74688"/><path d="M142.25,147.4a9.35,9.35,0,0,1,1.38-.37A2.34,2.34,0,0,1,142.25,147.4Z" style="fill:#e74688"/><path d="M130.59,157.68h0s0,0,0,.05S130.6,157.69,130.59,157.68Z" style="fill:#e74688"/><path d="M140.42,159.51a2.7,2.7,0,0,1,.31-.4C140.89,159.26,140.71,159.41,140.42,159.51Z" style="fill:#e74688"/><path d="M131.4,179.68l.47-.26C131.86,179.53,131.67,179.61,131.4,179.68Z" style="fill:#e74688"/><path d="M133.84,194.22c0-.23.43-.31.88-.38A2.73,2.73,0,0,1,133.84,194.22Z" style="fill:#e74688"/><path d="M126.27,110.54v-.1S126.3,110.51,126.27,110.54Z" style="fill:#e74688"/><path d="M125.08,119.51a3,3,0,0,1-.5.15C124.41,119.59,124.7,119.53,125.08,119.51Z" style="fill:#e74688"/><path d="M141,126.82c-1-.53.9-1.24,1-1.75l-.77.22.63-.55-1.13.07c.48-.87-.75-1.85,1-2.26l-1.8.2,1.38-1-1.19.58c-.44-1,.88-2.58.85-2.8l-.66.13c-.36-.14.08-.3.29-.48l-1,.19c.19-1.53-2.11-1.81-1.15-3.56-.27-.45-.31.27-.88.31-.81-.2-.08-.84.36-1-1.57.22-1,.91-2.34.44.75-.43-1.45.34-1.17-.35l2-.38c-.37-.35-1.58,0-1.42-.59.84-.73,2.34.7,2.58-.41-.17-.54-4.75-.88-3.72-2-1.11-.86-3.12.66-2.68-.64l-1.28.89c-.58-.18-1.58,0-1.19-.56.78-.22,1.76-.62,1.85-.92-1.47,1.27-2.37-.91-4.29.31l0-.41a.75.75,0,0,1-.42.06l-.17-.54c-.42.36-.57,1.17-2.08.89l-.41-.77a12.06,12.06,0,0,1-2.49.1l-2,2.46c.67-.13,1.09-.49,1.77-.41.63.59-1.18.58-.22,1.11l.87-.31c-.33.07-.43.15-.56,0-.59-.17.08-.3.65-.33,1.15.14.42.77-.36,1,.19.75,2.05,0,2.41.19-1.88.5.12,1.26-.74,1.78l1.22-.37c1.52.49.33,1.07-.09,1.43l1-.18c-.14.81,3.28,1-.27,1.82l.67-.12c.33.31,1.11.77.06,1.14a2.27,2.27,0,0,1,1.09.14c-1.38.26-.31.54,0,1,.35-.34,2.15-.34,2.56-.71,1.88.65-2,.8-1.9,1.43.94.32,1-.4,1.65-.52-.92,1,4.26,1.75.71,2.57l-1.17-.35c-.75.43-.73.63-.4.57-.12-.12.21-.18.55-.24,1.92,1-2.54,2-1.74,3.1a12.74,12.74,0,0,1,1.44-.34c.73.5-3.45.72-2,1.52l.77-.22c.49.26-.63.54-.86.52,3.06-.15,0,1.85,4,2.24-1.65.52-2.88,1.82-1.94,2.14,1.86.44,2-.59,3.7-.49,0,.42-1.63.74-1,1.33-1.69.11-3.51-1-4.41.2l.92.11c-.13-.12-.48-.26-.27-.45,1-.4,1.15.14,1.61.19l-.44,1.3c-1.8.2-1.42-.59-1.88-.64.44,1,3.15,2,2,3l.67-.13c-1.46,1.28,3.34.51.5,1.62.5.47,1.9-.29,2.09.45,0,.22-.67.13-.9.1-.59,1,1.74.31.13,1.26l1.9-.29c-1.26,1.09-4.54,2.35-3.67,3.19,1.47-.14,1.3-.68,2.41-1-2.59,1.35-.17,2.88-1.53,4.07-1.28-.26-2.89.68-4,0,1.9-.29.62-.55.81-.94-4.12.84,2.17,2.44-1.42,2.83l1.48.08c-.21.18-1.3.67-1.78.4l1,1.16c1.09-.49,3.61-1.54,2-1.73,1.54-.43,1.06.44,2.84,0-2.41,1,1.07.44.58,1.32-2.15-.26-2.84,1-3.87,1,.41.25-.55.92-1.26,1.2-.17.5,1.62,1.52.92,2.34a6.14,6.14,0,0,1,2.87-.89c-.75.43-.71.85.88.83,2.8-1.53-3.66-.23-1.86-1.57,1.78-.41,2.2-.77,2.69-1.44a13.31,13.31,0,0,0,2.75.13c-3.77,1-.26,2-2.08,3.16-1.09.5-3.49.31-3.85,1.3l-1.21-.76c1.11.85-1.11.28-1.48,1.06l1.21-.37c.27.44.06.63-.82.93l1.88-.5c.25.24.52.69-.6.76a7.75,7.75,0,0,0,1.16,0c-.31.07-.51.2-.43.48.21-.18.08-.3.65-.33-.39,1.14,2.07.14,1.93.84a1.41,1.41,0,0,1,1.24.27c-3,.15-3.32,1.54-5,2h0l-1.16,1c.24-.2,1.07,0,1.4.21l0,0c.49.27,3.24-.54,2.43.4l-.86.51c.1-.09.57,0,.8,0l-.79.53c2.85.57-1.5,1.47-.08,2.26-.25-.24-.06-.63.86-.52.36.15,0,.42-.39.58l.33-.06-1.76,1.75c1-.19,1-1.12,2.2-.77,1.38.16,0,.72-.13,1-.79,0-1.53-.5-1.92.08.39,0,1.24.52,1.79.24a9.2,9.2,0,0,1-2.59,2,.77.77,0,0,0,.77-.22l-.23,0c.42-.37,2-.17,1.17-.79,2.6-.2.78.92,1.17,1.49l1.72-1c3.65,1.37-.09,3.72,0,5.28-.83-.41-.08-.84-2.11-.67-.92,1-.48.87-.84,1.86l.1-.09c1.07.44-.89,1.24,1,1.46,1.1-.27-1.1-.64,1.17-.79l-.11,1.23c1.32-.46.11-1.23.4-1.71-.14-.33-.27.69-1.76.62,0-1.14,1.45-1.49,3.54-2.17,1.55-.43,1.63.41,1.65.62-2.3.86-3.32,2-2.2,3.05l1.75.52c-1.52.64-4.6.58-4.15,1.57l1.21-.37c.49.19.67.33.66.43.91-.48,1.93-1,2.87-1.46,2.66.43-1.19,1.73-1.67,2.6.33-.06.41-.36,1.08-.49.69,1.22-2.34,2.72-2.7,3.71,1.17.35.71-.85,2.43-.74-.63.55.89,1-.67,1.26,2.23-.35.23,1.17,2.28.07,1.08,1.79-.87,3.94-2,5.87a5.74,5.74,0,0,1,1.69-.11c-.06-.63.53-1.59,2.07-2,1.18.35-1.48,1.07-.79,1.15.54-.24.5-.66,1.63-.73,1.3.46-.48.87-.67,1.26l-.58-.17c-1.47,1.27-3.89.87-3.2,2.09,1.39.38,1.12-.06,2.82-.17-.65.34,1.25,1.19-.53,1.6l-.19-.76c-.44.56-.41,1.07-1,1.47a2.33,2.33,0,0,0,.88-.23c-.52.45-.36,1-1.47,1.27H136c-.81-.2-1-.95,0-1.14,1.59,0,.65.81.8,1.13.41-1.5,3.24-1.68,2-2.86l-.55.24c-1.42-.7.8-1.63.71-2.3a2.22,2.22,0,0,0,1.34.06c-1.5-1.42-.51-3-1.47-4.63l1.76-.62-1.37,0c-.64-.81,1.91-.29,1.74-.83,0,.21-.21.18-.54.25,1.48-1.07-1.3-.47-.9-1-1.44.34-.46,1.08-2.41,1,1.49-1.06.55-2.53,3.82-2.86-1.42-1.73.5-4.08.69-5.61-.58-.18-.44.15-.9.1,1.86-.71-1.44-1.94.26-2a7.86,7.86,0,0,0-2.2-.37,2.79,2.79,0,0,0,1.37-1.42l-.45.39-.23,0,.63-.54h.11c.41-1.25-.08-2.63,1.67-3.84-1.07.7-2,0-2.7.3,2.66-.72,2.64-2.07,2.31-3.14a6,6,0,0,0-1.47.13l1.07-.7-.67.13c-.56-1.11,2.37-2.51,1-3.19-.29.48-.86.52-1.76.62a3.75,3.75,0,0,1,.77-2.58,1.85,1.85,0,0,1-.55.11c-.25-.23.4-.57.71-.84l-1.36,0c.6-.52-.13-1.1.92-1.74-1.5-.14,1.3-1.48.63-2.11.32-.27-1.52.65-1.48-.07,2.93-.27,0-.94,3.18-1.17l-1.19-.56,1.57-.23c-3-.36,1.28-.88.29-1.62a2.58,2.58,0,0,1-.67.13c.32-.28.48-.88,1.32-.47,0-.42.61-1.89-1-1.15.9-.1.16.53-.15.8-1.36.05-.86-.61-2.34-.69a5.15,5.15,0,0,0,.59-.2l-.84,0c1.45-.87.33-1.62,2.22-2.3-.42,0-.75-.13-.67-.41l1.69-.11-.08-.84-2.44.54c-.55-.9,2.21-1.7,2.59-2.49-2.84,0,1-1.54-1.57-2.05l-.73.64c.44-1.3-1.27-1.4-.37-2.64,1,1,.43,1,2.83,2.31-1.27-1.39,1.46-2.62-.26-3.86-.67.13-1.08.49-1.8.2,1.45-.35-.12-1.26,1.59-1.16-.6-.38-2.19-.36-2.44-.61l2-1.51-.34.06c-4.07-2.15,2.4-4.58.58-6.87l-.9.1,1.3-.67c-.86.51-1.15-.14-2-.13l1.89-1.64C142.38,126.27,140.58,126.46,141,126.82Zm.39,20.14-.11.37c.09.07.12.14-.06.23l.06-.23C141,147.15,140.29,147.06,141.35,147ZM140,180.46c-.78.22-.26-.24-.38-.35l-.17.6C139.9,180.76,139.88,180.55,140,180.46Zm-9.6-32.85-1.15-.14.88-.31Zm-.39-5.13-.62.55-.24,0,.63-.54Zm8.82-6.22a1.35,1.35,0,0,1-.22.12.72.72,0,0,1,.22-.12c.8-.44-1.25-.48.71-.91C141.24,135.65,139.5,136,138.82,136.26Zm.54,9c-.21.19-.31.28-.18.39.67-.12,1.65-.52,1.9-.29-.78.22-.94.82-2.07.89C140.2,145.68,137,145.5,139.36,145.27Zm-.05,12.12-.13-.13-.86.52Zm-1,2.25c-1.44.35-1.15,1-1.45,1.49,1.26,0,2.68-.51,2.51-1C140.41,159.38,137.4,160,138.28,159.64Zm-1.34-18.18-1,.19-.12-.12-.63.54c-1.43-.58,1.13-1.2,1.55-1.57C136.65,140.8,134.24,141.76,136.94,141.46Zm.89,22.9c-.86.51-1.9,1.42-2.93,1.4,1.93-.08,2.77-.81,2.75-1S137.62,164.53,137.83,164.36Zm-3.62.18c.84-.73,1.74-.83,3.5-1.45.85.63-1.61.95-2.64.93-.86.52.38.36.63.59Zm5.36-1-.28-.27c-.82-.28-3-.22-.85-.8l.85.8C139.48,163.33,139.6,163.41,139.57,163.53Zm.23,5.7.64-.32c-.05.28-.34.33-.64.32l-.55.26C138.52,168.93,139.2,169.2,139.8,169.23Zm-.77-4.32.14-.81C138.27,164.2,138.77,164.67,139,164.91Zm-.95,4.24c-.15-.33-.46-1.2-.33-1.08C138.77,168.09,138.62,168.9,138.08,169.15ZM136.42,187l.07-.51,1.38.17Zm-1.37-5.86.69.09-.08.29Zm-.41-5.45a5.5,5.5,0,0,0,1-.09,1.23,1.23,0,0,1,.57-.23c0,.08-.24.16-.57.23-.29.23-.11.55.32.67.66-.12.52-.45,1-.61,1.63.41-3.12,1.81,1.48,1.22-.54.25-1.72,1-2.53.83.23-.58-.33-1.64-1.21-2-.24,0-.44,0-.48-.15A1.58,1.58,0,0,1,134.64,175.66Zm-1.41-7.31a.58.58,0,0,1,.38-.35,2.71,2.71,0,0,1,1.48-.35c-.53.46-1.07.22-1.48.35C133.41,168.12,133.26,168.24,133.23,168.35Zm-.36-1.28-.83.73,1-.4-1.82,1.12C130.24,168,131.64,167.23,132.87,167.07Zm-.9-.19,1.1-.2L132,167l0-.08-.25.05.57-1.17Zm1.55-11.75c-3.83-.21-2.65,1.16-4.47,1.49,1.28,0,3.28.29,3.17-.82,1.34.89-2.43.75.79,1.14-.27-.45.7-1.06.8-1.15l.17.54C136.32,155.88,132.77,155.56,133.52,155.13Zm-.91-5.81,0-.71-.27.69Zm-2.07-17.55c-.9.11-2.57-.72-.9-1C129.92,131.18,129.85,131.7,130.54,131.77Zm-.18-7.58-.71.85c-2.05,0,0-.72-.33-1.08C130.32,123.77,129.67,124.11,130.36,124.19Zm-.28-5.21.31-.27-2,.38Zm-2.68.5c-.92-.11-1.32.47-1.19.59Zm-2-4.59.14.32,1.78-.4Zm2.13.41c-1.28.15-3,.22-2.11.94a11.31,11.31,0,0,1,2.94-.06c.32-.27-.27-.45-.39-.57-.21.19.37.36-.53.46-.52-.26-.37-.57.09-.77a3.31,3.31,0,0,0,1.06-.23A3.14,3.14,0,0,0,127.49,115.3Zm1.59,2.71a1.42,1.42,0,0,0,.58.19l-.34.07c-.59-.07-.46-.17-.24-.26a5.06,5.06,0,0,1-.51-.35,6.89,6.89,0,0,0-2.53.73c.32-.27,1.42-.55.71-.85-.33.07-.56,0-.54.25l-.27-.45c1.56-.62,2.08-.14,2.63.32a3.06,3.06,0,0,1,.82.1C129.56,117.83,129.28,117.92,129.08,118Zm2.34-3.84-.31.27a6,6,0,0,1-1.24.16A1.27,1.27,0,0,1,131.42,114.17Zm1.26,15.07c-.36-.15-1.68.31-1.3.67l-1.71-.1c1.12-.08.94-.82,1-.91C132.28,128.67,131.63,129,132.68,129.24Zm1,17.53c-2.14.26-.8,1.14-1.34,1.39C131.88,147.68,131.31,146.58,133.72,146.77Zm1,1.61c0,.27.2.33-.88.36-.44.16.14.33-.29.49-1-.46.74-.53,1.17-.85a.59.59,0,0,1,.08-.25C134.83,148.24,134.78,148.31,134.68,148.38Zm-.45-10.25,1.55-.44-.17-.54Zm2.48-6c-.9.09-1-.53-.52-.69-1.19.11-1,.52-1.12.86a.23.23,0,0,0-.14.23.46.46,0,0,0,.14-.23,4.29,4.29,0,0,1,1.3-.11l.36.15.29-.48Zm.68-10.38c-.94-.32-.61-.39-.29-.66C137.56,121.13,137.71,121.45,137.39,121.73Zm.52,13.42c-.62-.59-1.77.41-2.38,0l.14.32c-1.29-.46,1.33-.46,1-.81l.25.24c1.15.13.75-.44,1.65-.53C139,134.66,138.17,135.39,137.91,135.15Zm.21-14.06c-1.19-.56,1.2-.58,1.38-1C140.57,120.56,138.41,120.61,138.12,121.09Zm3,9.9.23,0,.63-.54-.23,0Z" style="fill:#e74688"/><path d="M126.18,121c-.15-.15-.13-.25-.05-.34A.34.34,0,0,1,126.18,121Z" style="fill:#e74688"/><path d="M126.69,150.37a1.06,1.06,0,0,1,.58.11A1.41,1.41,0,0,1,126.69,150.37Z" style="fill:#e74688"/><path d="M126,151.64s0,0,0,0l-.1,0Z" style="fill:#e74688"/><path d="M132.34,193.94c-1.45.34-.26-.24-.27-.45C132.08,193.7,133.11,193.72,132.34,193.94Z" style="fill:#e74688"/><path d="M134.66,192.15a1.38,1.38,0,0,0-.82.56C133.79,192.58,133.93,192.42,134.66,192.15Z" style="fill:#e74688"/><path d="M134.11,193.53c-.32-.3-.39-.58-.27-.82C133.92,192.92,134.48,193.07,134.11,193.53Z" style="fill:#e74688"/><path d="M134,187.71c-.88.31-.38.79-.38.79-.9-1-1.67.31-2.34.44C131.55,188.25,132.68,188.18,134,187.71Z" style="fill:#e74688"/><path d="M134.37,186.25a.36.36,0,0,0,.19.29C134.33,186.45,134.31,186.35,134.37,186.25Z" style="fill:#e74688"/><path d="M133.48,185.89c.18-.39,1.19-.58,2-.8.76.42-.84.8-1.07,1.16C134.33,186,134.43,185.71,133.48,185.89Z" style="fill:#e74688"/><path d="M127.93,174.55c-.11.09-.09.3-.65.34l-.06-.63C127.54,174,127.8,174.43,127.93,174.55Z" style="fill:#e74688"/><path d="M130.53,172.07c.06-.51-1.38-.17-1.07-.44l1.92-.08Z" style="fill:#e74688"/><path d="M140.27,171.79l-.18.16.06-.17Z" style="fill:#e74688"/><path d="M128.48,169.75l-2.11.47A3.82,3.82,0,0,1,128.48,169.75Z" style="fill:#e74688"/><polygon points="126.93 167.91 126.29 168.24 126.88 167.28 126.93 167.91" style="fill:#e74688"/><polygon points="127.84 165.53 127.38 165.47 127.88 164.81 127.84 165.53" style="fill:#e74688"/><path d="M128.19,140.2c1.8-.2,1.1.85,1.59,1.12C127.49,141.25,130.49,140.47,128.19,140.2Z" style="fill:#e74688"/><path d="M127.06,121.83l-.36,1C126,122.11,126.69,122.61,127.06,121.83Z" style="fill:#e74688"/><line x1="165.97" y1="110.64" x2="155.64" y2="198.75" style="fill:#fff"/><path d="M167.39,123.54l-.25.2C167.24,123.75,167.34,123.7,167.39,123.54Z" style="fill:#e74688"/><path d="M160.76,180.82s0,.05.05.06S160.78,180.83,160.76,180.82Z" style="fill:#e74688"/><path d="M158.57,131.42h0l-.06-.06Z" style="fill:#e74688"/><path d="M160.56,120c-.64,3-1.81,3.67-1.74,6.86a32.17,32.17,0,0,0-.24,4.59c.75.8-.22,1.93.39,2.83l-.51.26c.2.32.33.67,0,.92l-.14,0c.31.46,0,.91.2,1.15l-.14,0V137l-.19-.11a3,3,0,0,1,0,2.2h.59c-.82,1.36.32,2-.6,3.22l-.14,0c1.33,1.81-1.34,2.46-.09,4.32-.15-.23-.31.05-.44,0,.07.79.06,1.63,1.19,1.78-.08.56-.41.42-.86.44.5,0,.65.57.63,1l-.17-.22,0,1.28,1-.13c-.35.63-1.17,0-1,.7l.77.08c-.26.91-1.5,1.32-2.18,2.15-.76,3.7.74,7.94-1,11.25l-.6.09c-.86,0,1.15,1.1.34,1.14l.35.45c-.17.1-.36.32-.53.1-.08.36.06.39.29.69l-.58.34c-.58,1.42.29,2.8-.1,4.32-1.29,1.74-.71,5.36-.37,7.45.94,3-2.84,5.9-1.73,9-.13.08.12.36.21.36l-.43,2.65s-1.84,12.87,6.37,3.89l.17.09c.63-1.4.83-2.31,0-3.42,1.16,0,.26-1.19.67-1.48l.08,0c-.77-1,.95-1.75.26-2.69.09,0,.4.09.4.29-.07-.64-.23-1.52.44-1.49,0-1.51.56-3.55-.39-4.63l.17.08c-.65-.63,0-.71-.32-1.37.1,0,.15-.06.18-.05-.64-.67.09-1.74-.15-2.25l.44,0,0-1.2-.15.43c-1.2-.29.87-.8.18-1.75.25-.78-2.34-1.92-1.64-2.68-.53-.47.88.46.51-.19.64.06.37.33.89.23-.23-.62.76-.88.42-1.65l.5,0c-.8-1,.85-1.69.07-2.41-.3-1,1.54-.48.69-1.6l.71-.31c.16-.42-.78-.41-.4-.85.42.08.41-.56.77-.24.79-1-.67-2.3.61-3.59-.79-.41-.22-1.07-.8-1.37.36,0,.22-1.43.9-.53.06.07,0,.19-.11.17l.48.15c1-.7-.33-1.53-.1-2.32-.19.22-.18.54-.49.29l.15-.74.39.21.37-1.09-.52.1c.32-.52,1.21-.61.56-1.31-.37-.32-.74.44-.83-.15a11.57,11.57,0,0,0,1.33-2.63c-.58,0-.53-.23-.61-.5l.5,0c-.57-1.07,1.13-.23.7-1.28l.33.13-1-.38c-.88-1,1.08-.36-.14-1.49,0,.39-1.12.05-.85-.4l.47.18c-.07-.28-.26-.39-.14-.55.24.18.68.16.65-.24l.56.33-.79-.83c.58-.51,0-1.49.74-1.64,0,0,.48-1.18-.23-1.54.43.29.68-.36,1.2-.1-.48-.38-.8-1.36-.2-1.67l0,.08c.73-1.32-.49-2.46.34-3.61-.58,0-.19-.63-.95-.56-.57-1.36,1.77-2.16-.44-2.89-.06-.6.61-.63.76-.92l.1.16a7.74,7.74,0,0,1,.11-2.24c-.17-.43-1.22-.62-.88-1.32.39.29.35,0,.38-.29,0,.18.19.25.52-.07a.75.75,0,0,1-.26-.23h.11c-.1-.47-.24-.41-.32-.21a.43.43,0,0,0-.27.05c.6-.41.12-1.32.84-1.29,0-1.38-.63-2.45-.78-3.61a.71.71,0,0,1,.79.56l0-.82c.53.07.25.5.33.76,1-.86-.63-2.08.29-3.11l-.39-.28.08-.06a.81.81,0,0,1-.55-.48c.48-.11,1.06.13,1.1-.43.5-.38-.08-1.27-.26-1.88-.11.3-.36.17-.51,0,0-.28.5-.38.33-.62l.63,0c-.6,0-.55-.8-.8-.93.48-.1.35.48.69.59.08-1.12,0-.56.11-1.68-.4-.65-.6,0-1.12-.31-.06-.54-.44-1.11,0-1.67l-.58.13a1.86,1.86,0,0,1,.46-2.22c-3.66-7.88-6-2.27-6-2.27C159.09,114.78,160.53,116.46,160.56,120Z" style="fill:#e74688"/><line x1="145.55" y1="106.74" x2="141.6" y2="191" style="fill:#fff"/><path d="M141.74,188.88a.78.78,0,0,0-.1.15C141.61,188.88,141.62,188.81,141.74,188.88Z" style="fill:#e74688"/><path d="M141.18,191a3.55,3.55,0,0,1,.46-1.95C141.73,189.52,142.27,190.86,141.18,191Z" style="fill:#e74688"/><path d="M143.5,188.86l-.36.67C142.87,189.12,143.37,189.21,143.5,188.86Z" style="fill:#e74688"/><polygon points="142.47 189.06 142.08 189.01 142.48 188.66 142.47 189.06" style="fill:#e74688"/><path d="M140.17,154a1.06,1.06,0,0,1-.6.05Z" style="fill:#e74688"/><path d="M142,152.51a2.15,2.15,0,0,0,.13-.32C142.19,152.29,142.15,152.37,142,152.51Z" style="fill:#e74688"/><path d="M140.27,155.45l0-.28A.35.35,0,0,1,140.27,155.45Z" style="fill:#e74688"/><path d="M141,173.06c-.3.24-.57.48-.76.66C139.92,173.2,140.57,173.18,141,173.06Z" style="fill:#e74688"/><path d="M148.16,145.52l-.31-.08C148,145.37,148.13,145.34,148.16,145.52Z" style="fill:#e74688"/><path d="M147.36,152.38a1.37,1.37,0,0,1-.41,0,.2.2,0,0,1,.08-.08Z" style="fill:#e74688"/><path d="M140.86,156.59s0,0,0,0l-.21.22C140.63,156.71,140.69,156.63,140.86,156.59Z" style="fill:#e74688"/><path d="M148.7,143.32a3.24,3.24,0,0,1,.71-.24A.74.74,0,0,1,148.7,143.32Z" style="fill:#e74688"/><path d="M142.17,152.15h0v0S142.17,152.17,142.17,152.15Z" style="fill:#e74688"/><path d="M146.91,154.65a4,4,0,0,1,.18-.36C147.16,154.45,147.06,154.58,146.91,154.65Z" style="fill:#e74688"/><path d="M141,173.06l.25-.21C141.2,173,141.1,173,141,173.06Z" style="fill:#e74688"/><path d="M141.11,187c0-.22.24-.26.47-.29A1.31,1.31,0,0,1,141.11,187Z" style="fill:#e74688"/><path d="M143.46,107.18l0-.09A.09.09,0,0,1,143.46,107.18Z" style="fill:#e74688"/><path d="M142.22,115.59l-.26.1C141.88,115.61,142,115.58,142.22,115.59Z" style="fill:#e74688"/><path d="M149.56,123.74c-.44-.58.54-1.1.61-1.58l-.4.14.35-.47-.57,0c.31-.78-.23-1.81.68-2.06l-.91,0,.76-.81-.64.46a7.27,7.27,0,0,1,.63-2.59l-.34.07c-.16-.16.07-.27.18-.43l-.51.1c.21-1.43-.91-1.88-.31-3.46-.1-.44-.17.24-.46.23-.38-.26,0-.8.25-.91-.79.09-.58.78-1.19.23.41-.34-.74.22-.56-.42l1-.2c-.16-.37-.79-.11-.66-.67.47-.62,1.11.84,1.3-.19,0-.52-2.29-1.2-1.7-2.19-.48-.89-1.59.39-1.28-.8l-.7.74c-.27-.22-.78-.11-.55-.63.4-.14.92-.44,1-.72-.82,1.09-1.11-1-2.15,0l.05-.39a.19.19,0,0,1-.21,0l-.05-.53c-.23.31-.36,1.07-1.09.68l-.15-.76c-.57.17-.79-.11-1.24-.09l-1.19,2.16c.34-.07.58-.38.91-.24.27.6-.63.45-.19,1l.45-.22c-.17,0-.22.11-.28,0-.28-.2.07-.27.35-.26.56.22.15.76-.25.91,0,.72,1,.2,1.18.36-1,.33,0,1.21-.5,1.63l.63-.26c.73.59.09,1.05-.14,1.36l.51-.1c-.13.75,1.55,1.21-.27,1.71l.34-.07c.14.32.5.82-.05,1.09.21,0,.47.08.53.21-.71.14-.2.49-.09,1,.19-.29,1.08-.15,1.32-.46.88.75-1,.6-1,1.2.44.38.52-.3.86-.37-.53.9,2,2,.16,2.49l-.55-.42c-.41.35-.42.54-.24.51-.06-.12.11-.15.28-.19.88,1.15-1.4,1.67-1.09,2.81.34-.07.46-.23.74-.22.33.53-1.76.42-1.1,1.28l.4-.14c.22.29-.36.47-.47.42,1.53.1-.15,1.76,1.81,2.43-.86.37-1.57,1.51-1.12,1.88.89.56,1-.4,1.87-.17,0,.4-.86.57-.6,1.18-.84,0-1.66-1.26-2.2-.16l.45.18c-.06-.12-.22-.29-.1-.45.51-.3.56.23.78.31l-.31,1.19c-.91,0-.66-.66-.89-.75.15,1,1.42,2.17.77,3l.35-.07c-.83,1.1,1.62.74.12,1.57.22.49,1-.12,1,.6,0,.2-.34.07-.46,0-.36.87.84.43,0,1.21l1-.13c-.7.93-2.42,1.87-2.05,2.73.74,0,.69-.54,1.26-.72-1.38,1.07-.29,2.71-1.05,3.73-.62-.34-1.49.43-2-.27,1-.13.35-.47.48-.83-2.11.49.89,2.48-.92,2.57l.73.19c-.11.16-.69.54-.91.25l.42,1.18c.58-.38,1.9-1.18,1.12-1.49.8-.29.49.5,1.41.25-1.27.72.49.5.19,1.29-1-.41-1.48.73-2,.67.19.27-.34.83-.71,1-.12.46.69,1.57.29,2.29a2.06,2.06,0,0,1,1.48-.62c-.4.34-.41.74.38.85,1.5-1.23-1.8-.5-.81-1.63a1.84,1.84,0,0,0,1.44-1.15c.51.3.74.19,1.36.33-1.94.65-.28,1.91-1.27,2.84-.57.38-1.75,0-2,.93l-.54-.82c.48.89-.57.18-.82.89l.63-.26c.1.45,0,.6-.47.83l1-.33c.1.24.2.69-.36.66a1.72,1.72,0,0,0,.58.11c-.16,0-.27.15-.25.43.11-.16.06-.28.34-.27-.27,1.05,1,.3.9,1,.23-.09.49.11.6.35-1.5-.09-1.76,1.2-2.61,1.51h0l-.64.85c.13-.17.53,0,.68.31v0c.22.29,1.65-.26,1.18.56l-.47.43c.06-.08.28,0,.4,0l-.43.44c1.37.77-.85,1.28-.2,2.14-.11-.24,0-.6.46-.42.16.16,0,.4-.24.51l.17,0-1,1.52c.51-.1.59-1,1.14-.56.68.27-.07.68-.13,1-.4,0-.72-.59-1-.07.19.07.58.59.87.37-.43.51-.71,1.28-1.43,1.73.16.16.34-.07.39-.15l-.11,0c.24-.32,1,0,.64-.66,1.3,0,.32.93.47,1.5l.93-.85c1.71,1.58-.31,3.51-.41,5-.38-.46,0-.8-1-.8-.53.9-.3.79-.55,1.7l.06-.08c.5.5-.54,1.1.36,1.46.57-.18-.5-.7.64-.66l-.14,1.16c.68-.34.14-1.16.32-1.59-.05-.33-.19.63-.92.44.09-1.08.83-1.29,1.91-1.77.8-.29.78.51.78.71-1.2.63-1.8,1.61-1.32,2.71l.84.63c-.81.5-2.33.2-2.18,1.17l.63-.26c.23.22.3.36.29.47.49-.4,1-.82,1.54-1.17,1.28.61-.72,1.54-1,2.33.17,0,.24-.31.58-.38.25,1.22-1.36,2.4-1.61,3.31.55.42.41-.75,1.25-.52-.35.47.37,1.06-.42,1.15,1.13-.16,0,1.12,1.13.24.4,1.78-.72,3.66-1.44,5.4a1.49,1.49,0,0,1,.85,0,1.94,1.94,0,0,1,1.17-1.76c.56.42-.81.89-.48,1,.29-.19.3-.59.87-.57.61.55-.31.79-.43,1.15l-.28-.21c-.82,1.09-2,.53-1.74,1.74.67.46.57,0,1.42,0-.35.27.53,1.22-.38,1.47l0-.73c-.26.5-.28,1-.59,1.32.18,0,.37-.05.45-.16-.29.39-.25.91-.82,1.09l.9.16c-.39-.26-.43-1,.08-1.08.79.11.27.81.31,1.13.32-1.39,1.74-1.34,1.2-2.56l-.29.19c-.65-.77.52-1.48.52-2.13a.63.63,0,0,0,.66.17c-.64-1.47,0-2.85-.39-4.5l.92-.45-.68-.06c-.26-.81,1-.13.92-.65,0,.2-.12.16-.29.19.82-.89-.61-.54-.37-1.05-.74.21-.31,1-1.26.71.81-.89.46-2.35,2.1-2.41-.58-1.74.55-3.82.76-5.26-.28-.21-.24.11-.46,0,1-.53-.57-2,.28-1.92-.22-.29-.84-.43-1.07-.52a2.36,2.36,0,0,0,.79-1.23l-.25.33-.12-.05.36-.46,0,0c.29-1.15.15-2.5,1.11-3.5-.58.57-1-.2-1.36.07,1.37-.48,1.46-1.75,1.37-2.8-.28,0-.51-.1-.74,0l.59-.57-.35.06c-.19-1.09,1.36-2.19.76-2.93-.18.43-.47.42-.92.44a5.85,5.85,0,0,1,.57-2.38.68.68,0,0,1-.28.07c-.11-.24.24-.51.41-.75l-.68-.06c.34-.45,0-1.06.59-1.58-.74-.25.75-1.3.46-2,.18-.23-.8.49-.73-.18,1.48,0,.08-.89,1.67-.86l-.55-.63.79-.09c-1.46-.57.7-.74.27-1.51-.18,0-.23.11-.35.07.18-.24.31-.79.69-.34,0-.4.44-1.75-.42-1.18.45,0,0,.52-.13.76-.68-.07-.38-.66-1.11-.84a2.39,2.39,0,0,0,.31-.14l-.42-.11c.78-.71.28-1.5,1.27-2a.33.33,0,0,1-.3-.43l.85,0v-.8l-1.25.31c-.2-.89,1.23-1.44,1.47-2.15-1.41-.25.6-1.38-.63-2.06l-.41.54c.32-1.19-.53-1.42,0-2.52a6.47,6.47,0,0,0,1.24,2.41c-.53-1.42.91-2.37.15-3.69-.34.07-.57.38-.91,0,.75-.21,0-1.2.88-1-.27-.41-1.06-.51-1.17-.76l1.11-1.28-.17,0c-1.87-2.35,1.52-4.15.78-6.46l-.45,0,.69-.53c-.46.42-.56-.22-.95-.28l1-1.4C150.31,123.33,149.4,123.37,149.56,123.74Zm-1.28,19.1-.07.34a.16.16,0,0,1-.05.22l.05-.22C148.1,143,147.75,142.85,148.28,142.84Zm-3.12,31.61c-.4.15-.1-.24-.16-.36l-.12.56C145.1,174.74,145.1,174.53,145.16,174.45ZM142.8,142.6l-.56-.22.46-.22Zm.18-4.88-.35.47-.11,0,.35-.47Zm4.83-5.2-.12.08a.36.36,0,0,1,.12-.08c.43-.36-.58-.56.42-.82C149.06,132.12,148.17,132.32,147.81,132.52Zm-.39,8.57c-.11.15-.17.23-.12.35.34-.06.86-.37,1-.12-.4.14-.53.7-1.1.68C147.81,141.54,146.23,141.13,147.42,141.09Zm-.91,11.46,0-.12-.47.43Zm-.67,2.06c-.74.22-.65.86-.83,1.29.62.15,1.37-.27,1.32-.79C146.91,154.53,145.38,154.84,145.84,154.61Zm.66-17.32-.51.1-.05-.12-.35.47c-.67-.67.64-1.06.88-1.37C146.4,136.65,145.14,137.36,146.5,137.29ZM145.27,159c-.46.42-1.05,1.2-1.55,1.1a1.28,1.28,0,0,0,1.43-.75C145.1,159.27,145.15,159.19,145.27,159Zm-1.81-.11c.47-.62.92-.65,1.84-1.1.38.66-.87.78-1.37.68-.47.42.16.36.26.61Zm2.73-.54-.12-.27c-.38-.33-1.47-.45-.36-.83l.36.83A.25.25,0,0,1,146.19,158.39Zm-.3,5.42.34-.25c0,.26-.19.28-.34.25l-.29.2C145.28,163.42,145.6,163.73,145.89,163.81Zm-.07-4.15.14-.76C145.5,158.93,145.71,159.41,145.82,159.66ZM145,163.6a4.39,4.39,0,0,1-.08-1C145.46,162.65,145.33,163.41,145,163.6Zm-2.12,16.74.07-.47.67.26Zm-.25-5.65.33.13-.06.28Zm.19-5.2a1.21,1.21,0,0,0,.5,0,.45.45,0,0,1,.29-.16c0,.07-.13.13-.29.16a.48.48,0,0,0,.1.67c.34-.07.29-.39.52-.51.78.52-1.68,1.47.65,1.27-.29.19-.93.85-1.32.6a2.57,2.57,0,0,0-.45-2c-.12,0-.21-.08-.23-.17A.63.63,0,0,1,142.86,169.49Zm-.17-7c.07-.19.14-.28.22-.31a.85.85,0,0,1,.76-.21c-.3.39-.55.12-.76.21A.69.69,0,0,0,142.69,162.47Zm-.08-1.24-.46.62.51-.3-1,.92C141.24,161.89,142,161.28,142.61,161.23Zm-.43-.25.56-.11-.58.18,0-.07-.13,0,.37-1.06Zm1.62-11c-1.88-.49-1.39.89-2.32,1.06.63.08,1.6.54,1.63-.52.6.94-1.26.51.31,1.13-.1-.44.42-.95.48-1l0,.52C145.14,150.9,143.4,150.32,143.8,150Zm0-5.57.08-.68-.19.64Zm.26-16.78c-.45,0-1.22-.88-.37-1.05C143.76,127,143.7,127.49,144,127.62Zm.46-7.19-.41.75c-1-.2.07-.68-.09-1.05C144.5,120,144.16,120.3,144.49,120.43Zm.24-5,.18-.23-1,.2Zm-1.36.27a.48.48,0,0,0-.64.46Zm-.68-4.51.05.32.91-.24Zm1,.56c-.65,0-1.52,0-1.12.72.68.06.68-.14,1.47.17.18-.23-.1-.44-.16-.56-.11.15.16.36-.29.39a.44.44,0,0,1,.1-.72,1,1,0,0,0,.54-.14A.89.89,0,0,0,143.72,111.79Zm.59,2.68a.66.66,0,0,0,.27.23l-.17,0c-.29-.11-.22-.2-.1-.27a2.26,2.26,0,0,1-.22-.37c-.57-.1-1,.38-1.31.5.17-.23.74-.41.41-.75-.17,0-.28,0-.29.19l-.1-.44c.82-.46,1,0,1.29.5a1,1,0,0,1,.39.16C144.56,114.34,144.42,114.4,144.31,114.47Zm1.44-3.45-.17.23c-.23.12-.46,0-.63.06C145,111,145.42,110.69,145.75,111Zm-.47,14.37c-.17-.17-.86.17-.7.53l-.84-.23c.56,0,.53-.7.59-.78C145.12,124.82,144.77,125.08,145.28,125.39Zm-.77,16.68c-1.08.08-.47,1-.76,1.21C143.53,142.79,143.33,141.7,144.51,142.07Zm.36,1.6c0,.25.08.32-.46.27-.23.11.05.33-.18.44-.45-.51.4-.44.64-.71a.78.78,0,0,1,.06-.23A.21.21,0,0,1,144.87,143.67Zm.53-9.75.8-.29,0-.52Zm1.67-5.5c-.46,0-.44-.58-.21-.69-.6,0-.54.41-.62.72a.29.29,0,0,0-.09.21.5.5,0,0,0,.09-.21c.15-.11.45,0,.65,0l.17.17.18-.44Zm1.09-9.78c-.44-.38-.27-.41-.1-.64A.4.4,0,0,1,148.16,118.64Zm-.72,12.75c-.26-.61-.91.25-1.18-.16l.05.32c-.61-.54.69-.33.52-.7l.11.25c.56.21.41-.35.86-.38C148,131,147.55,131.64,147.44,131.39Zm1.13-13.29c-.55-.63.64-.46.76-.82C149.83,117.78,148.75,117.66,148.57,118.1Zm.78,9.6.11,0,.35-.47-.11,0Z" style="fill:#e74688"/><path d="M142.66,117.08a.32.32,0,0,1,0-.33A.74.74,0,0,1,142.66,117.08Z" style="fill:#e74688"/><path d="M140.76,144.93a.39.39,0,0,1,.28.15A.46.46,0,0,1,140.76,144.93Z" style="fill:#e74688"/><path d="M140.34,146.08s0,0,0,0l-.05,0Z" style="fill:#e74688"/><path d="M140.39,186.62c-.75.22-.11-.24-.11-.44C140.28,186.38,140.79,186.48,140.39,186.62Z" style="fill:#e74688"/><path d="M141.67,185.11a.86.86,0,0,0-.45.47C141.21,185.45,141.29,185.31,141.67,185.11Z" style="fill:#e74688"/><path d="M141.3,186.38a1.06,1.06,0,0,1-.08-.8C141.24,185.78,141.51,186,141.3,186.38Z" style="fill:#e74688"/><path d="M141.66,180.86a.54.54,0,0,0-.24.71c-.37-1-.85.17-1.2.24C140.41,181.17,141,181.2,141.66,180.86Z" style="fill:#e74688"/><path d="M142,179.5a.47.47,0,0,0,.07.29A.23.23,0,0,1,142,179.5Z" style="fill:#e74688"/><path d="M141.54,179.09c.12-.35.63-.45,1-.6.35.45-.47.69-.61,1C142,179.24,142,179,141.54,179.09Z" style="fill:#e74688"/><path d="M139.61,167.93c-.06.08-.06.27-.34.27v-.6C139.46,167.36,139.56,167.8,139.61,167.93Z" style="fill:#e74688"/><path d="M141.08,165.78c.07-.48-.67-.27-.49-.5l1,.07Z" style="fill:#e74688"/><path d="M145.94,166.27l-.1.14a.94.94,0,0,1,0-.16Z" style="fill:#e74688"/><path d="M140.24,163.42l-1.09.28A1.15,1.15,0,0,1,140.24,163.42Z" style="fill:#e74688"/><polygon points="139.6 161.56 139.26 161.82 139.62 160.96 139.6 161.56" style="fill:#e74688"/><polygon points="140.23 159.38 140 159.29 140.3 158.7 140.23 159.38" style="fill:#e74688"/><path d="M142.25,135.41c.91,0,.48.9.71,1.19C141.83,136.36,143.37,135.85,142.25,135.41Z" style="fill:#e74688"/><path d="M143,117.93l-.25.91C142.46,118.12,142.79,118.65,143,117.93Z" style="fill:#e74688"/><line x1="167.55" y1="106.74" x2="163.6" y2="191" style="fill:#fff"/><path d="M163.74,188.88a.78.78,0,0,0-.1.15C163.61,188.88,163.62,188.81,163.74,188.88Z" style="fill:#e74688"/><path d="M163.18,191a3.55,3.55,0,0,1,.46-1.95C163.73,189.52,164.27,190.86,163.18,191Z" style="fill:#e74688"/><path d="M165.5,188.86l-.36.67C164.87,189.12,165.37,189.21,165.5,188.86Z" style="fill:#e74688"/><polygon points="164.47 189.06 164.08 189.01 164.48 188.66 164.47 189.06" style="fill:#e74688"/><path d="M162.17,154a1.06,1.06,0,0,1-.6.05Z" style="fill:#e74688"/><path d="M164,152.51a2.15,2.15,0,0,0,.13-.32C164.19,152.29,164.15,152.37,164,152.51Z" style="fill:#e74688"/><path d="M162.27,155.45l0-.28A.35.35,0,0,1,162.27,155.45Z" style="fill:#e74688"/><path d="M163,173.06c-.3.24-.57.48-.76.66C161.92,173.2,162.57,173.18,163,173.06Z" style="fill:#e74688"/><path d="M170.16,145.52l-.31-.08C170,145.37,170.13,145.34,170.16,145.52Z" style="fill:#e74688"/><path d="M169.36,152.38a1.37,1.37,0,0,1-.41,0,.2.2,0,0,1,.08-.08Z" style="fill:#e74688"/><path d="M162.86,156.59s0,0,0,0l-.21.22C162.63,156.71,162.69,156.63,162.86,156.59Z" style="fill:#e74688"/><path d="M170.7,143.32a3.24,3.24,0,0,1,.71-.24A.74.74,0,0,1,170.7,143.32Z" style="fill:#e74688"/><path d="M164.17,152.15h0v0S164.17,152.17,164.17,152.15Z" style="fill:#e74688"/><path d="M168.91,154.65a4,4,0,0,1,.18-.36C169.16,154.45,169.06,154.58,168.91,154.65Z" style="fill:#e74688"/><path d="M163,173.06l.25-.21C163.2,173,163.1,173,163,173.06Z" style="fill:#e74688"/><path d="M163.11,187c0-.22.24-.26.47-.29A1.31,1.31,0,0,1,163.11,187Z" style="fill:#e74688"/><path d="M165.46,107.18l0-.09A.09.09,0,0,1,165.46,107.18Z" style="fill:#e74688"/><path d="M164.22,115.59l-.26.1C163.88,115.61,164,115.58,164.22,115.59Z" style="fill:#e74688"/><path d="M171.56,123.74c-.44-.58.54-1.1.61-1.58l-.4.14.35-.47-.57,0c.31-.78-.23-1.81.68-2.06l-.91,0,.76-.81-.64.46a7.27,7.27,0,0,1,.63-2.59l-.34.07c-.16-.16.07-.27.18-.43l-.51.1c.21-1.43-.91-1.88-.31-3.46-.1-.44-.17.24-.46.23-.38-.26,0-.8.25-.91-.79.09-.58.78-1.19.23.41-.34-.74.22-.56-.42l1-.2c-.16-.37-.79-.11-.66-.67.47-.62,1.11.84,1.3-.19,0-.52-2.29-1.2-1.7-2.19-.48-.89-1.59.39-1.28-.8l-.7.74c-.27-.22-.78-.11-.55-.63.4-.14.92-.44,1-.72-.82,1.09-1.11-1-2.15,0l.05-.39a.19.19,0,0,1-.21,0l-.05-.53c-.23.31-.36,1.07-1.09.68l-.15-.76c-.57.17-.79-.11-1.24-.09l-1.19,2.16c.34-.07.58-.38.91-.24.27.6-.63.45-.19,1l.45-.22c-.17,0-.22.11-.28,0-.28-.2.07-.27.35-.26.56.22.15.76-.25.91,0,.72,1,.2,1.18.36-1,.33,0,1.21-.5,1.63l.63-.26c.73.59.09,1.05-.14,1.36l.51-.1c-.13.75,1.55,1.21-.27,1.71l.34-.07c.14.32.5.82-.05,1.09.21,0,.47.08.53.21-.71.14-.2.49-.09,1,.19-.29,1.08-.15,1.32-.46.88.75-1,.6-1,1.2.44.38.52-.3.86-.37-.53.9,2,2,.16,2.49l-.55-.42c-.41.35-.42.54-.24.51-.06-.12.11-.15.28-.19.88,1.15-1.4,1.67-1.09,2.81.34-.07.46-.23.74-.22.33.53-1.76.42-1.1,1.28l.4-.14c.22.29-.36.47-.47.42,1.53.1-.15,1.76,1.81,2.43-.86.37-1.57,1.51-1.12,1.88.89.56,1-.4,1.87-.17,0,.4-.86.57-.6,1.18-.84,0-1.66-1.26-2.2-.16l.45.18c-.06-.12-.22-.29-.1-.45.51-.3.56.23.78.31l-.31,1.19c-.91,0-.66-.66-.89-.75.15,1,1.42,2.17.77,3l.35-.07c-.83,1.1,1.62.74.12,1.57.22.49,1-.12,1,.6,0,.2-.34.07-.46,0-.36.87.84.43,0,1.21l1-.13c-.7.93-2.42,1.87-2.05,2.73.74,0,.69-.54,1.26-.72-1.38,1.07-.29,2.71-1.05,3.73-.62-.34-1.49.43-2-.27,1-.13.35-.47.48-.83-2.11.49.89,2.48-.92,2.57l.73.19c-.11.16-.69.54-.91.25l.42,1.18c.58-.38,1.9-1.18,1.12-1.49.8-.29.49.5,1.41.25-1.27.72.49.5.19,1.29-1-.41-1.48.73-2,.67.19.27-.34.83-.71,1-.12.46.69,1.57.29,2.29a2.06,2.06,0,0,1,1.48-.62c-.4.34-.41.74.38.85,1.5-1.23-1.8-.5-.81-1.63a1.84,1.84,0,0,0,1.44-1.15c.51.3.74.19,1.36.33-1.94.65-.28,1.91-1.27,2.84-.57.38-1.75,0-2,.93l-.54-.82c.48.89-.57.18-.82.89l.63-.26c.1.45,0,.6-.47.83l1-.33c.1.24.2.69-.36.66a1.72,1.72,0,0,0,.58.11c-.16,0-.27.15-.25.43.11-.16.06-.28.34-.27-.27,1.05,1,.3.9,1,.23-.09.49.11.6.35-1.5-.09-1.76,1.2-2.61,1.51h0l-.64.85c.13-.17.53,0,.68.31v0c.22.29,1.65-.26,1.18.56l-.47.43c.06-.08.28,0,.4,0l-.43.44c1.37.77-.85,1.28-.2,2.14-.11-.24,0-.6.46-.42.16.16,0,.4-.24.51l.17,0-1,1.52c.51-.1.59-1,1.14-.56.68.27-.07.68-.13,1-.4,0-.72-.59-1-.07.19.07.58.59.87.37-.43.51-.71,1.28-1.43,1.73.16.16.34-.07.39-.15l-.11,0c.24-.32,1,0,.64-.66,1.3,0,.32.93.47,1.5l.93-.85c1.71,1.58-.31,3.51-.41,5-.38-.46,0-.8-1-.8-.53.9-.3.79-.55,1.7l.06-.08c.5.5-.54,1.1.36,1.46.57-.18-.5-.7.64-.66l-.14,1.16c.68-.34.14-1.16.32-1.59-.05-.33-.19.63-.92.44.09-1.08.83-1.29,1.91-1.77.8-.29.78.51.78.71-1.2.63-1.8,1.61-1.32,2.71l.84.63c-.81.5-2.33.2-2.18,1.17l.63-.26c.23.22.3.36.29.47.49-.4,1-.82,1.54-1.17,1.28.61-.72,1.54-1,2.33.17,0,.24-.31.58-.38.25,1.22-1.36,2.4-1.61,3.31.55.42.41-.75,1.25-.52-.35.47.37,1.06-.42,1.15,1.13-.16,0,1.12,1.13.24.4,1.78-.72,3.66-1.44,5.4a1.49,1.49,0,0,1,.85,0,1.94,1.94,0,0,1,1.17-1.76c.56.42-.81.89-.48,1,.29-.19.3-.59.87-.57.61.55-.31.79-.43,1.15l-.28-.21c-.82,1.09-2,.53-1.74,1.74.67.46.57,0,1.42,0-.35.27.53,1.22-.38,1.47l0-.73c-.26.5-.28,1-.59,1.32.18,0,.37-.05.45-.16-.29.39-.25.91-.82,1.09l.9.16c-.39-.26-.43-1,.08-1.08.79.11.27.81.31,1.13.32-1.39,1.74-1.34,1.2-2.56l-.29.19c-.65-.77.52-1.48.52-2.13a.63.63,0,0,0,.66.17c-.64-1.47,0-2.85-.39-4.5l.92-.45-.68-.06c-.26-.81,1-.13.92-.65,0,.2-.12.16-.29.19.82-.89-.61-.54-.37-1.05-.74.21-.31,1-1.26.71.81-.89.46-2.35,2.1-2.41-.58-1.74.55-3.82.76-5.26-.28-.21-.24.11-.46,0,1-.53-.57-2,.28-1.92-.22-.29-.84-.43-1.07-.52a2.36,2.36,0,0,0,.79-1.23l-.25.33-.12-.05.36-.46,0,0c.29-1.15.15-2.5,1.11-3.5-.58.57-1-.2-1.36.07,1.37-.48,1.46-1.75,1.37-2.8-.28,0-.51-.1-.74,0l.59-.57-.35.06c-.19-1.09,1.36-2.19.76-2.93-.18.43-.47.42-.92.44a5.85,5.85,0,0,1,.57-2.38.68.68,0,0,1-.28.07c-.11-.24.24-.51.41-.75l-.68-.06c.34-.45,0-1.06.59-1.58-.74-.25.75-1.3.46-2,.18-.23-.8.49-.73-.18,1.48,0,.08-.89,1.67-.86l-.55-.63.79-.09c-1.46-.57.7-.74.27-1.51-.18,0-.23.11-.35.07.18-.24.31-.79.69-.34,0-.4.44-1.75-.42-1.18.45,0,0,.52-.13.76-.68-.07-.38-.66-1.11-.84a2.39,2.39,0,0,0,.31-.14l-.42-.11c.78-.71.28-1.5,1.27-2a.33.33,0,0,1-.3-.43l.85,0v-.8l-1.25.31c-.2-.89,1.23-1.44,1.47-2.15-1.41-.25.6-1.38-.63-2.06l-.41.54c.32-1.19-.53-1.42,0-2.52a6.47,6.47,0,0,0,1.24,2.41c-.53-1.42.91-2.37.15-3.69-.34.07-.57.38-.91,0,.75-.21,0-1.2.88-1-.27-.41-1.06-.51-1.17-.76l1.11-1.28-.17,0c-1.87-2.35,1.52-4.15.78-6.46l-.45,0,.69-.53c-.46.42-.56-.22-.95-.28l1-1.4C172.31,123.33,171.4,123.37,171.56,123.74Zm-1.28,19.1-.07.34a.16.16,0,0,1-.05.22l.05-.22C170.1,143,169.75,142.85,170.28,142.84Zm-3.12,31.61c-.4.15-.1-.24-.16-.36l-.12.56C167.1,174.74,167.1,174.53,167.16,174.45ZM164.8,142.6l-.56-.22.46-.22Zm.18-4.88-.35.47-.11,0,.35-.47Zm4.83-5.2-.12.08a.36.36,0,0,1,.12-.08c.43-.36-.58-.56.42-.82C171.06,132.12,170.17,132.32,169.81,132.52Zm-.39,8.57c-.11.15-.17.23-.12.35.34-.06.86-.37,1-.12-.4.14-.53.7-1.1.68C169.81,141.54,168.23,141.13,169.42,141.09Zm-.91,11.46,0-.12-.47.43Zm-.67,2.06c-.74.22-.65.86-.83,1.29.62.15,1.37-.27,1.32-.79C168.91,154.53,167.38,154.84,167.84,154.61Zm.66-17.32-.51.1-.05-.12-.35.47c-.67-.67.64-1.06.88-1.37C168.4,136.65,167.14,137.36,168.5,137.29ZM167.27,159c-.46.42-1.05,1.2-1.55,1.1a1.28,1.28,0,0,0,1.43-.75C167.1,159.27,167.15,159.19,167.27,159Zm-1.81-.11c.47-.62.92-.65,1.84-1.1.38.66-.87.78-1.37.68-.47.42.16.36.26.61Zm2.73-.54-.12-.27c-.38-.33-1.47-.45-.36-.83l.36.83A.25.25,0,0,1,168.19,158.39Zm-.3,5.42.34-.25c0,.26-.19.28-.34.25l-.29.2C167.28,163.42,167.6,163.73,167.89,163.81Zm-.07-4.15.14-.76C167.5,158.93,167.71,159.41,167.82,159.66ZM167,163.6a4.39,4.39,0,0,1-.08-1C167.46,162.65,167.33,163.41,167,163.6Zm-2.12,16.74.07-.47.67.26Zm-.25-5.65.33.13-.06.28Zm.19-5.2a1.21,1.21,0,0,0,.5,0,.45.45,0,0,1,.29-.16c0,.07-.13.13-.29.16a.48.48,0,0,0,.1.67c.34-.07.29-.39.52-.51.78.52-1.68,1.47.65,1.27-.29.19-.93.85-1.32.6a2.57,2.57,0,0,0-.45-2c-.12,0-.21-.08-.23-.17A.63.63,0,0,1,164.86,169.49Zm-.17-7c.07-.19.14-.28.22-.31a.85.85,0,0,1,.76-.21c-.3.39-.55.12-.76.21A.69.69,0,0,0,164.69,162.47Zm-.08-1.24-.46.62.51-.3-1,.92C163.24,161.89,164,161.28,164.61,161.23Zm-.43-.25.56-.11-.58.18,0-.07-.13,0,.37-1.06Zm1.62-11c-1.88-.49-1.39.89-2.32,1.06.63.08,1.6.54,1.63-.52.6.94-1.26.51.31,1.13-.1-.44.42-.95.48-1l0,.52C167.14,150.9,165.4,150.32,165.8,150Zm0-5.57.08-.68-.19.64Zm.26-16.78c-.45,0-1.22-.88-.37-1.05C165.76,127,165.7,127.49,166,127.62Zm.46-7.19-.41.75c-1-.2.07-.68-.09-1.05C166.5,120,166.16,120.3,166.49,120.43Zm.24-5,.18-.23-1,.2Zm-1.36.27a.48.48,0,0,0-.64.46Zm-.68-4.51.05.32.91-.24Zm1,.56c-.65,0-1.52,0-1.12.72.68.06.68-.14,1.47.17.18-.23-.1-.44-.16-.56-.11.15.16.36-.29.39a.44.44,0,0,1,.1-.72,1,1,0,0,0,.54-.14A.89.89,0,0,0,165.72,111.79Zm.59,2.68a.66.66,0,0,0,.27.23l-.17,0c-.29-.11-.22-.2-.1-.27a2.26,2.26,0,0,1-.22-.37c-.57-.1-1,.38-1.31.5.17-.23.74-.41.41-.75-.17,0-.28,0-.29.19l-.1-.44c.82-.46,1,0,1.29.5a1,1,0,0,1,.39.16C166.56,114.34,166.42,114.4,166.31,114.47Zm1.44-3.45-.17.23c-.23.12-.46,0-.63.06C167,111,167.42,110.69,167.75,111Zm-.47,14.37c-.17-.17-.86.17-.7.53l-.84-.23c.56,0,.53-.7.59-.78C167.12,124.82,166.77,125.08,167.28,125.39Zm-.77,16.68c-1.08.08-.47,1-.76,1.21C165.53,142.79,165.33,141.7,166.51,142.07Zm.36,1.6c0,.25.08.32-.46.27-.23.11.05.33-.18.44-.45-.51.4-.44.64-.71a.78.78,0,0,1,.06-.23A.21.21,0,0,1,166.87,143.67Zm.53-9.75.8-.29,0-.52Zm1.67-5.5c-.46,0-.44-.58-.21-.69-.6,0-.54.41-.62.72a.29.29,0,0,0-.09.21.5.5,0,0,0,.09-.21c.15-.11.45,0,.65,0l.17.17.18-.44Zm1.09-9.78c-.44-.38-.27-.41-.1-.64A.4.4,0,0,1,170.16,118.64Zm-.72,12.75c-.26-.61-.91.25-1.18-.16l.05.32c-.61-.54.69-.33.52-.7l.11.25c.56.21.41-.35.86-.38C170,131,169.55,131.64,169.44,131.39Zm1.13-13.29c-.55-.63.64-.46.76-.82C171.83,117.78,170.75,117.66,170.57,118.1Zm.78,9.6.11,0,.35-.47-.11,0Z" style="fill:#e74688"/><path d="M164.66,117.08a.32.32,0,0,1,0-.33A.74.74,0,0,1,164.66,117.08Z" style="fill:#e74688"/><path d="M162.76,144.93a.39.39,0,0,1,.28.15A.46.46,0,0,1,162.76,144.93Z" style="fill:#e74688"/><path d="M162.34,146.08s0,0,0,0l-.05,0Z" style="fill:#e74688"/><path d="M162.39,186.62c-.75.22-.11-.24-.11-.44C162.28,186.38,162.79,186.48,162.39,186.62Z" style="fill:#e74688"/><path d="M163.67,185.11a.86.86,0,0,0-.45.47C163.21,185.45,163.29,185.31,163.67,185.11Z" style="fill:#e74688"/><path d="M163.3,186.38a1.06,1.06,0,0,1-.08-.8C163.24,185.78,163.51,186,163.3,186.38Z" style="fill:#e74688"/><path d="M163.66,180.86a.54.54,0,0,0-.24.71c-.37-1-.85.17-1.2.24C162.41,181.17,163,181.2,163.66,180.86Z" style="fill:#e74688"/><path d="M164,179.5a.47.47,0,0,0,.07.29A.23.23,0,0,1,164,179.5Z" style="fill:#e74688"/><path d="M163.54,179.09c.12-.35.63-.45,1-.6.35.45-.47.69-.61,1C164,179.24,164,179,163.54,179.09Z" style="fill:#e74688"/><path d="M161.61,167.93c-.06.08-.06.27-.34.27v-.6C161.46,167.36,161.56,167.8,161.61,167.93Z" style="fill:#e74688"/><path d="M163.08,165.78c.07-.48-.67-.27-.49-.5l1,.07Z" style="fill:#e74688"/><path d="M167.94,166.27l-.1.14a.94.94,0,0,1,0-.16Z" style="fill:#e74688"/><path d="M162.24,163.42l-1.09.28A1.15,1.15,0,0,1,162.24,163.42Z" style="fill:#e74688"/><polygon points="161.6 161.56 161.26 161.82 161.62 160.96 161.6 161.56" style="fill:#e74688"/><polygon points="162.23 159.38 162 159.29 162.3 158.7 162.23 159.38" style="fill:#e74688"/><path d="M164.25,135.41c.91,0,.48.9.71,1.19C163.83,136.36,165.37,135.85,164.25,135.41Z" style="fill:#e74688"/><path d="M165,117.93l-.25.91C164.46,118.12,164.79,118.65,165,117.93Z" style="fill:#e74688"/><line x1="147.95" y1="197.09" x2="158.28" y2="108.98" style="fill:#fff"/><path d="M157.93,111.19c.09,0,.14-.1.21-.14C158.19,111.21,158.16,111.29,157.93,111.19Z" style="fill:#e74688"/><path d="M159.11,109.08a2.33,2.33,0,0,1-1,2C158,110.51,156.94,109,159.11,109.08Z" style="fill:#e74688"/><path d="M154.44,110.88l.72-.63C155.69,110.73,154.69,110.54,154.44,110.88Z" style="fill:#e74688"/><polygon points="156.48 110.86 157.26 110.99 156.45 111.28 156.48 110.86" style="fill:#e74688"/><path d="M160,148.24a4.24,4.24,0,0,1,1.2.06Z" style="fill:#e74688"/><path d="M156.27,149.48a1.44,1.44,0,0,0-.26.31C156,149.68,156.06,149.61,156.27,149.48Z" style="fill:#e74688"/><path d="M159.88,146.7l.08.31C159.86,146.9,159.82,146.79,159.88,146.7Z" style="fill:#e74688"/><path d="M159,128c.6-.21,1.15-.41,1.53-.56C161.09,128.06,159.79,128,159,128Z" style="fill:#e74688"/><path d="M143.89,155.72l.62.15C144.22,155.91,143.94,155.92,143.89,155.72Z" style="fill:#e74688"/><path d="M145.68,148.64a5,5,0,0,1,.83.13l-.17.07Z" style="fill:#e74688"/><path d="M158.73,145.39l-.06,0,.42-.19C159.19,145.31,159.07,145.38,158.73,145.39Z" style="fill:#e74688"/><path d="M142.75,157.94a10.83,10.83,0,0,1-1.42.13A2.29,2.29,0,0,1,142.75,157.94Z" style="fill:#e74688"/><path d="M156,149.83h0s0,0,0,0S156,149.82,156,149.83Z" style="fill:#e74688"/><path d="M146.65,146.33c-.13.11-.22.22-.37.34C146.15,146.49,146.35,146.38,146.65,146.33Z" style="fill:#e74688"/><path d="M159,128l-.51.17C158.54,128.08,158.74,128,159,128Z" style="fill:#e74688"/><path d="M159.13,113.28c0,.23-.47.23-.94.22A3,3,0,0,1,159.13,113.28Z" style="fill:#e74688"/><path d="M152.12,197l0,.09S152.08,197,152.12,197Z" style="fill:#e74688"/><path d="M154.84,188.37c.15,0,.31-.05.52-.06S155.22,188.42,154.84,188.37Z" style="fill:#e74688"/><path d="M140.47,178.44c.85.68-1.1,1.06-1.26,1.55l.81-.08-.72.43,1.13.12c-.63.78.42,1.95-1.41,2l1.81.11-1.53.72,1.28-.36c.26,1-1.32,2.39-1.33,2.61l.68,0c.32.21-.14.29-.37.43h1c-.45,1.47,1.77,2.14.52,3.7.19.48.35-.22.92-.16.76.34-.07.84-.53.92,1.59.05,1.19-.71,2.39,0-.82.29,1.48-.09,1.09.55l-2,0c.3.42,1.56.26,1.3.83-1,.57-2.19-1.09-2.61,0,.07.56,4.52,1.69,3.32,2.62.94,1,3.18-.12,2.52,1.08l1.41-.65c.55.28,1.57.26,1.08.76-.8.08-1.84.3-2,.58,1.66-1,2.17,1.3,4.27.44l-.12.4a.79.79,0,0,1,.43,0l.07.56c.48-.28.76-1.06,2.2-.51l.27.83a12.17,12.17,0,0,1,2.47.32l2.43-2.06c-.68,0-1.16.29-1.82.09-.52-.69,1.27-.37.41-1.05l-.91.15c.34,0,.46-.08.56.06.55.27-.14.28-.7.22-1.1-.34-.27-.83.53-.92-.06-.76-2-.39-2.34-.59,1.94-.17.1-1.27,1-1.63l-1.26.16c-1.42-.75-.14-1.12.34-1.4h-1c.29-.78-3.05-1.57.59-1.76h-.68c-.28-.37-1-.95.13-1.14a2.08,2.08,0,0,1-1-.32c1.4,0,.4-.48.2-1-.39.28-2.16,0-2.64.26-1.74-1,2.07-.45,2.12-1.08-.87-.48-1,.22-1.72.23,1.09-.85-3.89-2.47-.25-2.65l1.09.54c.82-.29.84-.5.5-.49.1.14-.24.14-.58.14-1.71-1.37,2.83-1.5,2.25-2.76a14.12,14.12,0,0,1-1.48.1c-.64-.62,3.52-.12,2.24-1.15l-.8.08c-.43-.35.71-.43.94-.37-3-.37.36-1.82-3.53-2.89,1.72-.23,3.16-1.3,2.29-1.78-1.76-.74-2.06.24-3.73-.15,0-.43,1.73-.45,1.22-1.14,1.69.19,3.28,1.63,4.38.57l-.89-.27c.11.14.43.34.19.49-1,.22-1.11-.34-1.55-.47l.66-1.2c1.8.12,1.3.82,1.74,1-.26-1.05-2.75-2.55-1.45-3.34h-.68c1.67-1-3.2-1.08-.21-1.68-.41-.55-1.93,0-2-.81,0-.21.68,0,.9.06.75-.85-1.65-.61.1-1.27l-1.93,0c1.43-.86,4.88-1.53,4.16-2.5-1.47-.12-1.39.44-2.53.52,2.78-.87.66-2.8,2.21-3.73,1.21.47,3-.18,3.92.64-1.93,0-.72.44-1,.79,4.21-.13-1.71-2.78,1.89-2.55l-1.44-.33c.23-.14,1.39-.44,1.82-.09l-.81-1.32c-1.15.29-3.81.89-2.26,1.36-1.6.16-1-.62-2.79-.52,2.53-.53-1-.62-.35-1.4,2.08.63,3-.49,4-.34-.36-.32.7-.81,1.45-1,.25-.46-1.33-1.78-.5-2.47a6.12,6.12,0,0,1-3,.39c.81-.29.84-.71-.72-1-3,1,3.56.86,1.56,1.87-1.83.09-2.3.38-2.91.94a13.32,13.32,0,0,0-2.68-.59c3.88-.33.61-2,2.59-2.76,1.16-.3,3.5.3,4-.62l1.06,1c-.94-1,1.14-.09,1.65-.79l-1.26.16c-.19-.49,0-.64,1-.79l-1.95.17c-.2-.28-.39-.76.73-.64a8.27,8.27,0,0,0-1.14-.22c.32,0,.54-.1.51-.4-.24.14-.13.28-.7.22.58-1.06-2-.5-1.76-1.17a1.43,1.43,0,0,1-1.18-.47c3,.36,3.54-1,5.24-1.12h0l1.31-.79c-.26.16-1.06-.13-1.34-.44v0c-.43-.34-3.28,0-2.32-.81l.94-.36c-.12.07-.57-.06-.79-.13l.87-.39c-2.71-1.05,1.73-1.19.46-2.21.21.27,0,.63-.93.36-.33-.21,0-.42.49-.5h-.34l2-1.42c-1,0-1.2.92-2.29.38-1.33-.4.16-.7.3-1,.78.13,1.42.76,1.91.26-.38-.11-1.14-.73-1.73-.55a9.21,9.21,0,0,1,2.91-1.57.78.78,0,0,0-.8.09l.22.06c-.48.29-2-.18-1.29.58-2.59-.25-.6-1-.9-1.67l-1.86.73c-3.37-2,.72-3.65,1-5.19.76.55-.06.84,2,1,1.08-.85.63-.78,1.15-1.69l-.12.07c-1-.62,1.1-1.06-.67-1.6-1.14.08,1,.83-1.29.57l.31-1.19c-1.38.23-.31,1.19-.69,1.62.09.35.39-.63,1.84-.3-.2,1.12-1.68,1.21-3.86,1.52-1.6.15-1.53-.68-1.52-.9,2.42-.44,3.62-1.37,2.7-2.62l-1.64-.81c1.61-.38,4.63.22,4.37-.83l-1.26.15c-.46-.27-.6-.43-.58-.54-1,.32-2.07.67-3.08.94-2.54-.87,1.48-1.49,2.1-2.26-.34,0-.47.28-1.15.29-.47-1.32,2.78-2.27,3.3-3.19-1.09-.54-.85.71-2.52.32.71-.44-.7-1.19.88-1.14-2.26,0,0-1.19-2.23-.46-.76-2,1.53-3.72,3-5.43a5.78,5.78,0,0,1-1.69-.18c0,.63-.79,1.47-2.39,1.64-1.1-.55,1.64-.8,1-1-.58.14-.61.56-1.73.44-1.2-.69.62-.78.88-1.13l.54.27c1.66-1,4-.19,3.52-1.51-1.32-.62-1.12-.13-2.81-.32.69-.22-1-1.38.79-1.48l.06.77c.53-.47.59-1,1.21-1.27a2.11,2.11,0,0,0-.9.08c.6-.36.52-.92,1.67-1l-1.79-.33c.76.34.82,1.11-.2,1.12-1.57-.26-.5-.9-.59-1.25-.67,1.41-3.48,1.1-2.45,2.48l.58-.15c1.27.94-1.07,1.47-1.1,2.15a2.31,2.31,0,0,0-1.31-.3c1.23,1.67,0,3,.65,4.82l-1.84.31,1.35.19c.5.9-1.92-.05-1.85.51,0-.21.23-.14.58-.15-1.65.79,1.19.69.7,1.18,1.48-.09.64-1,2.53-.52-1.64.79-1,2.39-4.24,2.15,1.1,1.95-1.2,3.94-1.66,5.41.55.28.46-.07.91.06-2,.38,1.08,2.16-.61,2a8.24,8.24,0,0,0,2.1.74,2.77,2.77,0,0,0-1.59,1.16l.5-.3.23.06-.72.43-.1,0c-.62,1.15-.38,2.6-2.31,3.49,1.17-.51,2,.4,2.71.17-2.75.25-3,1.58-2.82,2.7a5.56,5.56,0,0,0,1.47.12l-1.18.5h.68c.37,1.18-2.76,2.06-1.58,2.95.37-.42.94-.36,1.84-.3a3.76,3.76,0,0,1-1.2,2.41,2.06,2.06,0,0,1,.56,0c.21.27-.49.49-.84.71l1.34.19c-.68.41-.06,1.11-1.2,1.56,1.45.4-1.54,1.23-1,2-.36.21,1.61-.37,1.45.33-2.94-.25-.18.91-3.34.6l1.08.75-1.59,0c2.89.87-1.41.65-.57,1.54a2.69,2.69,0,0,1,.69,0c-.36.22-.63.78-1.38.23,0,.42-.93,1.76.8,1.32-.9-.06-.07-.56.29-.77,1.34.19.74.76,2.19,1.08-.15,0-.4.06-.63.1l.83.19c-1.58.61-.6,1.53-2.59,1.88.42.08.72.26.6.52l-1.69-.19-.07.84,2.5-.1c.39,1-2.48,1.29-3,2,2.79.52-1.24,1.34,1.19,2.29l.83-.5c-.66,1.2,1,1.6-.09,2.66-.82-1.11-.26-1.05-2.39-2.77,1,1.6-1.89,2.33-.41,3.86.68,0,1.15-.3,1.8.11-1.48.09-.09,1.26-1.76.86.52.49,2.09.74,2.3,1l-2.24,1.15h.34c3.64,2.82-3.15,4.1-1.76,6.66l.91.06-1.4.44c.94-.36,1.11.33,1.89.46l-2.13,1.29C139,178.73,140.78,178.85,140.47,178.44Zm3.1-19.91.16-.35c-.08-.08-.09-.16.1-.22l-.1.22C143.93,158.39,144.63,158.61,143.57,158.53Zm7.13-32.76c.8-.08.21.28.31.41l.27-.56C150.83,125.48,150.82,125.7,150.7,125.77Zm3.77,34,1.11.33-.92.15Zm-.5,5.11.71-.43.22.07-.71.42Zm-9.77,4.6a1.15,1.15,0,0,1,.24-.07,1.21,1.21,0,0,1-.24.07c-.85.3,1.15.69-.85.78C141.72,169.69,143.49,169.64,144.2,169.5Zm1-9c.24-.14.35-.21.25-.35-.68,0-1.71.23-1.92,0,.8-.09,1.06-.65,2.19-.52C144.48,160,147.6,160.71,145.23,160.53Zm2.15-11.92.1.14.94-.36Zm1.4-2c1.48-.09,1.31-.79,1.68-1.21-1.23-.27-2.72,0-2.65.59C146.63,146.46,149.7,146.41,148.78,146.57ZM147,164.71h1l.11.13.71-.43c1.3.83-1.32,1-1.8,1.29C147.13,165.4,149.66,164.88,147,164.71ZM150,142c.93-.36,2.12-1.07,3.12-.88-1.91-.25-2.86.32-2.87.53S150.27,141.86,150,142Zm3.59.45c-.95.57-1.85.51-3.69.82-.73-.77,1.75-.66,2.75-.46.94-.36-.31-.42-.51-.69Zm-5.45.07.23.3c.76.42,2.92.74.7.94l-.7-.94C148.23,142.73,148.13,142.63,148.18,142.52Zm.76-5.66-.68.2c.09-.26.38-.26.68-.2l.59-.16C150.15,137.38,149.52,137,148.94,136.86Zm0,4.39-.29.77C149.58,142.08,149.16,141.53,149,141.25Zm1.66-4c.09.35.25,1.25.14,1.12C149.76,138.16,150,137.39,150.62,137.24ZM155.33,120l-.15.49-1.33-.4Zm.34,6-.66-.2.13-.28Zm-.54,5.44a4.48,4.48,0,0,0-1-.08,1.18,1.18,0,0,1-.59.12c0-.07.26-.11.59-.12.33-.18.2-.52-.19-.72-.68,0-.59.36-1.05.44-1.54-.69,3.38-1.24-1.25-1.46.57-.15,1.87-.73,2.63-.38a1.93,1.93,0,0,0,.84,2.2c.24.06.43.13.45.23A1.6,1.6,0,0,1,155.13,131.42Zm.13,7.44a.66.66,0,0,1-.44.29,2.8,2.8,0,0,1-1.51.08c.6-.36,1.09,0,1.51-.08A.89.89,0,0,0,155.26,138.86Zm.13,1.32,1-.57-1,.23,2-.8C158.14,139.73,156.63,140.24,155.39,140.18Zm.85.34h-1.11l1.15-.08,0,.07h.26l-.76,1.06Zm-3.55,11.31c3.74.87,2.81-.68,4.66-.69-1.26-.2-3.18-.86-3.27.25-1.16-1.1,2.52-.31-.58-1.25.19.49-.86.92-1,1l-.07-.55C150.06,150.61,153.5,151.54,152.69,151.83Zm-.1,5.88-.17.7.39-.64Zm-1,17.64c.9.06,2.41,1.16.7,1.18C152.1,176,152.25,175.55,151.59,175.35Zm-1.14,7.5.85-.71c2,.39-.17.7.14,1.12C150.42,183.27,151.12,183.05,150.45,182.85Zm-.62,5.19-.36.21,2.05,0Zm2.72,0c.89.27,1.38-.23,1.28-.37Zm1.22,4.88-.08-.35-1.83.1Zm-2-.77c1.29.07,3,.3,2.25-.56a11.89,11.89,0,0,1-2.92-.45c-.35.21.2.48.29.62.24-.14-.3-.41.6-.35.48.34.27.62-.22.74a3.28,3.28,0,0,0-1.09,0A3.19,3.19,0,0,0,151.74,192.11Zm-1.09-2.94a1.65,1.65,0,0,0-.54-.3h.34c.57.17.43.24.2.3a3.49,3.49,0,0,1,.43.43,7.19,7.19,0,0,0,2.62-.28c-.35.21-1.49.29-.84.7.34,0,.56.07.57-.14l.19.48c-1.64.34-2.07-.22-2.54-.76a3.83,3.83,0,0,1-.78-.24C150.14,189.26,150.43,189.22,150.65,189.17Zm-3,3.37.35-.21a6.14,6.14,0,0,1,1.25,0A1.27,1.27,0,0,1,147.68,192.54ZM149,177.48c.33.21,1.71,0,1.4-.44l1.67.4c-1.12-.12-1.07.65-1.19.72C149.34,178.11,150,177.89,149,177.48Zm2-17.44c2.15.11,1-1,1.56-1.14C153,159.45,153.38,160.64,151.05,160Zm-.67-1.76c.06-.26-.14-.36.93-.2.46-.08-.08-.35.37-.43.88.62-.82.39-1.3.63a.64.64,0,0,1-.12.23C150.2,158.4,150.27,158.33,150.38,158.28Zm-1.33,10.18-1.6.16.07.56Zm-3.48,5.5c.9.06.86.69.39.76,1.19.1,1.09-.33,1.25-.65a.22.22,0,0,0,.18-.2.43.43,0,0,0-.18.2,4.78,4.78,0,0,1-1.3-.11l-.32-.21-.38.42Zm-2.47,10.1c.87.48.53.49.18.7C142.83,184.63,142.74,184.28,143.1,184.06Zm1.81-13.31c.51.69,1.82-.09,2.35.39l-.09-.35c1.2.68-1.38.23-1.07.64l-.2-.27c-1.11-.34-.82.29-1.72.23C143.75,171,144.7,170.47,144.91,170.75Zm-2.64,13.81c1.08.76-1.27.37-1.53.72C139.77,184.67,141.9,185,142.27,184.56ZM141,174.3l-.22-.07-.72.43.23.06Z" style="fill:#e74688"/><path d="M154,186.72c.13.17.09.27,0,.34A.4.4,0,0,1,154,186.72Z" style="fill:#e74688"/><path d="M158.59,157.7a1,1,0,0,1-.55-.21A1.45,1.45,0,0,1,158.59,157.7Z" style="fill:#e74688"/><path d="M159.47,156.57s0,0,0,0l.1,0Z" style="fill:#e74688"/><path d="M160.56,113.82c1.48-.09.21.27.19.48C160.77,114.09,159.76,113.89,160.56,113.82Z" style="fill:#e74688"/><path d="M158,115.18a1.43,1.43,0,0,0,.91-.42C158.9,114.9,158.73,115,158,115.18Z" style="fill:#e74688"/><path d="M158.74,113.91c.27.36.29.64.13.85C158.83,114.54,158.3,114.3,158.74,113.91Z" style="fill:#e74688"/><path d="M157.85,119.66c.92-.16.51-.71.51-.71.7,1.18,1.7,0,2.38,0C160.35,119.56,159.23,119.43,157.85,119.66Z" style="fill:#e74688"/><path d="M157.23,121a.38.38,0,0,0-.14-.32C157.3,120.85,157.31,121,157.23,121Z" style="fill:#e74688"/><path d="M158.05,121.54c-.25.35-1.28.37-2.07.45-.68-.54,1-.64,1.25-.95C157.22,121.31,157.08,121.56,158.05,121.54Z" style="fill:#e74688"/><path d="M161.55,133.67c.12-.07.14-.28.7-.22l-.05.63C161.84,134.29,161.66,133.81,161.55,133.67Z" style="fill:#e74688"/><path d="M158.57,135.67c-.15.49,1.33.4,1,.61l-1.91-.25Z" style="fill:#e74688"/><path d="M148.92,134.25l.21-.12a.83.83,0,0,0-.09.16Z" style="fill:#e74688"/><path d="M160.18,138.31l2.16-.1A3.85,3.85,0,0,1,160.18,138.31Z" style="fill:#e74688"/><polygon points="161.38 140.39 162.08 140.17 161.33 141.02 161.38 140.39" style="fill:#e74688"/><polygon points="160.09 142.57 160.53 142.71 159.92 143.28 160.09 142.57" style="fill:#e74688"/><path d="M155.36,167.46c-1.81-.11-.94-1-1.37-1.38C156.22,166.55,153.14,166.8,155.36,167.46Z" style="fill:#e74688"/><path d="M153.29,185.75l.53-.91C154.44,185.66,153.8,185.05,153.29,185.75Z" style="fill:#e74688"/><circle cx="163.5" cy="151.5" r="8" style="fill:#fff"/><path d="M170.32,160l-.29-.08A.24.24,0,0,0,170.32,160Z" style="fill:#98971d"/><path d="M166.4,140.9l.06,0A.1.1,0,0,0,166.4,140.9Z" style="fill:#98971d"/><path d="M163.65,154.56h0v0Z" style="fill:#98971d"/><path d="M166.33,153.88a1.41,1.41,0,0,1-1.1,0c-.32-.08-.53-.15-.72.17-.29,0-.53.33-.86.48-.06.43-.19.44-.31.41s-.24-.05-.4.27v-.48c-.11.23-.24.38-.24.1l0-.13c-.18.32-.25.09-.35.24l.05-.13h-.14l.08-.18c-.3.32-.51.23-.58,0l-.26.51c0-.4-.21-.33-.39-.31s-.39,0-.26-.41l.09-.1c-.69.42-.67,0-.59-.26s.23-.58-.5-.42c.18,0,.24-.18.36-.25-.27-.08-.41-.27-1.47.19-.09-.19.26-.29.66-.48-.46.2-.71.1-.8,0h.21a2.19,2.19,0,0,1-.29-.39l-.89.33c.19-.34,1.1-.34.81-.52l-.76.16c.09-.43,1.22-.79,1.8-1.06.15-.52-.19-1.09-.23-1.79s.25-1.4,1.13-1.31l.45.37c.6.61-.67-1.09-.1-.55l-.16-.39a.92.92,0,0,1,.36.37c.11,0,0-.15-.06-.41l.4.37c.29.07.34-.17.45-.41s.24-.51.49-.5a.8.8,0,0,0,1.11.21c.37-.21.84-.56,1.24-.76.65-.52,1.08.25,1.2.93s.05,1.26.87,1.09c-.07.1.18,0,.26-.07a5.12,5.12,0,0,1,.35.75,3.72,3.72,0,0,0,.27.49,3.84,3.84,0,0,0,.9.93,3,3,0,0,0,2,.54,3.71,3.71,0,0,0,1.7-.6,4.6,4.6,0,0,0,1-.84,6.13,6.13,0,0,0,1-1.4h.19c.15-1.25-.14-2.08-1.32-2.33.94-.67-.38-.88-.22-1.29l.09,0c-.58,0-.63-.43-.72-.84s-.2-.83-.72-.79c.08,0,.32-.27.44-.16-.48-.27-1.16-.52-.77-1.07a15,15,0,0,0-1.82-1.07,1.94,1.94,0,0,0-1.87,0l.11-.16c-.65.54-.56-.11-1.13.13a1.44,1.44,0,0,1,0-.18c-.61.55-1.33-.17-1.74.09l0-.45c-.31,0-.62,0-.92.05l.33.11c-.09.61-.23.41-.47.15s-.56-.53-.87-.12c-.32-.07-.57.62-.75,1.24s-.32,1.17-.65.95c-.1.62,0-1-.27-.44-.18-.61.08-.43-.15-.9-.32.38-.88-.43-1.24.17l-.21-.46c-.18.54-.52.55-.88.53s-.7,0-.68.49c-.39.72-1.27-.95-1.36.32l-.67-.32c-.35.16.34.79-.16.81-.27-.33-.6.09-.71-.36-.57.1-.73.63-.92,1.13a1.63,1.63,0,0,1-1.18,1.23c.56.65-.15.94.33,1.39-.35-.14-.54,1.07-1,.13,0-.08,0-.17.15-.1l-.41-.28c-.59.14-.59.53-.49.92s.3.79.15,1.11c.2-.16.23-.43.51-.16l-.22.59-.37-.23a7.76,7.76,0,0,0-.44.92l.52,0c-.32.41-1.23.5-.55,1.12.39.26.71-.38.84.11a5.22,5.22,0,0,0-1,2.38c.56-.14.57.08.72.28l-.49.09c.83.74-1,.53-.29,1.3h-.36l1.07,0c1.14.45-.89.74.68,1.11-.2-.28,1-.51.9-.09l-.48.08c.18.17.38.16.35.33-.29,0-.67.21-.45.48l-.65,0c.37.08.72.15,1.08.2-.26.68.72,1,.25,1.53a1.72,1.72,0,0,0,.27.5.69.69,0,0,0,.83.28c-.5.14-.24.69-.76.92.6-.11,1.43.17,1.31.79h-.09a1.83,1.83,0,0,0,1.35,1c.52.16,1,.25,1.33.83.23-.53.59,0,.8-.72.62-.09.9.42,1.24.73s.66.39,1.13-.67c.46,0,.4.66.62.82l-.14.1a8.69,8.69,0,0,1,1.83,0c.35-.21.39-1.25.93-1-.16.43.06.35.27.33-.13.08-.17.24.13.5a.73.73,0,0,1,.14-.28s0,.05,0,.1c.34-.18.26-.31.09-.35a.54.54,0,0,0-.08-.25c.42.5,1-.18,1.15.52,1-.4,1.51-1.35,2.1-2a.74.74,0,0,1,0,.92l.5-.39c.24.48-.19.43-.32.61.52.23.82-.13,1-.54s.44-.8,1-.75l-.11-.45.08,0a1,1,0,0,1-.13-.66c.39.29.68.84,1,.52.58.11.58-.85.66-1.33-.22.12-.36-.11-.42-.29.12-.16.56,0,.5-.21l.51.38c-.52-.31-.18-.83-.35-1,.45.17.14.49.39.75a7.83,7.83,0,0,0,.64-1.13c-.18-.62-.56-.23-.93-.68.08-.38-.19-.87.33-1.08l-.56-.11c-.17-.75,0-1,.65-1.29a4.4,4.4,0,0,0-2.61-2.19,3.29,3.29,0,0,0-1.92-.08,6.11,6.11,0,0,0-1.09.28l-.35.13c-.64.2-.61.3-.39.64A1.84,1.84,0,0,1,166.33,153.88Z" style="fill:#98971d"/></svg>